<svg width="355" height="150" viewBox="0 0 355 150" fill="none" xmlns="http://www.w3.org/2000/svg">
<mask id="path-1-inside-1_1_24" fill="white">
<path d="M57.96 2.52H94.86V6.11999C91.74 5.99999 88.98 6.24 86.58 6.83999C84.54 7.32 82.62 8.16 80.82 9.35999C79.14 10.44 78.3 12.18 78.3 14.58L78.12 146.88H74.7L20.16 19.98L20.34 134.82C20.34 137.1 21.18 138.84 22.86 140.04C24.66 141.12 26.58 141.96 28.62 142.56C31.02 143.04 33.78 143.28 36.9 143.28V146.88H2.05636e-06V143.28C3.12 143.28 5.88 143.04 8.28 142.56C10.32 141.96 12.18 141.12 13.86 140.04C15.66 138.84 16.56 137.1 16.56 134.82V13.68C16.56 11.64 15.72 10.14 14.04 9.18C12.36 8.1 10.5 7.32 8.46 6.83999C5.94 6.35999 3.18 6.11999 0.180002 6.11999V2.52H20.16H20.34L74.52 128.7V14.58C74.52 12.18 73.62 10.44 71.82 9.35999C70.14 8.16 68.28 7.32 66.24 6.83999C63.84 6.24 61.08 5.99999 57.96 6.11999V2.52ZM129.867 11.34C121.107 15.66 113.967 21.3 108.447 28.26C102.927 35.1 98.9672 42.66 96.5672 50.94C94.2872 59.22 93.6272 67.92 94.5872 77.04C95.6672 86.04 98.3672 94.92 102.687 103.68C107.007 112.44 112.467 120 119.067 126.36C125.667 132.6 132.927 137.34 140.847 140.58C148.887 143.82 157.347 145.32 166.227 145.08C175.107 144.84 183.927 142.56 192.687 138.24C201.447 133.92 208.587 128.34 214.107 121.5C219.747 114.54 223.707 106.92 225.987 98.64C228.267 90.36 228.927 81.66 227.967 72.54C227.007 63.42 224.367 54.48 220.047 45.72C215.727 36.96 210.207 29.46 203.487 23.22C196.887 16.86 189.567 12.06 181.527 8.82C173.607 5.58 165.207 4.14 156.327 4.5C147.447 4.74 138.627 7.02 129.867 11.34ZM194.127 141.12C185.007 145.68 175.527 148.2 165.687 148.68C155.967 149.28 146.607 148.08 137.607 145.08C128.607 141.96 120.387 137.22 112.947 130.86C105.507 124.5 99.5072 116.76 94.9472 107.64C90.3872 98.4 87.8072 88.92 87.2072 79.2C86.7272 69.36 87.9872 59.94 90.9872 50.94C94.1072 41.94 98.8472 33.72 105.207 26.28C111.567 18.84 119.307 12.84 128.427 8.28C137.667 3.72 147.147 1.2 156.867 0.719998C166.707 0.239997 176.127 1.56 185.127 4.68C194.127 7.68 202.347 12.36 209.787 18.72C217.227 24.96 223.227 32.7 227.787 41.94C232.347 51.06 234.867 60.54 235.347 70.38C235.827 80.1 234.507 89.46 231.387 98.46C228.387 107.46 223.707 115.68 217.347 123.12C211.107 130.56 203.367 136.56 194.127 141.12ZM230.91 2.52H271.77V6.11999C268.65 5.99999 265.89 6.24 263.49 6.83999C261.45 7.32 259.53 8.16 257.73 9.35999C256.05 10.44 255.21 12.18 255.21 14.58V135.36C255.45 137.52 256.41 139.14 258.09 140.22C259.89 141.3 261.81 142.08 263.85 142.56C266.13 143.04 268.77 143.28 271.77 143.28V146.88H230.91V143.28C234.03 143.28 236.79 143.04 239.19 142.56C241.23 141.96 243.09 141.12 244.77 140.04C246.57 138.84 247.47 137.1 247.47 134.82V14.58C247.47 12.18 246.57 10.44 244.77 9.35999C243.09 8.16 241.23 7.32 239.19 6.83999C236.79 6.24 234.03 5.99999 230.91 6.11999V2.52ZM332.003 33.12C332.003 27.6 331.283 23.1 329.843 19.62C328.403 16.14 326.483 13.38 324.083 11.34C321.803 9.18 319.283 7.68 316.523 6.83999C313.763 5.88 311.003 5.28 308.243 5.04C307.283 5.04 306.023 5.1 304.463 5.21999C303.023 5.34 301.583 5.7 300.143 6.3C298.823 6.9 297.683 7.86 296.723 9.18C295.763 10.5 295.283 12.36 295.283 14.76V65.16H296.003C307.643 65.16 316.523 62.7 322.643 57.78C328.883 52.86 332.003 44.64 332.003 33.12ZM349.823 143.64H354.323V146.88H350.183C345.263 146.88 341.363 145.62 338.483 143.1C335.723 140.46 333.503 137.1 331.823 133.02C330.263 128.82 329.063 124.14 328.223 118.98C327.383 113.7 326.423 108.42 325.343 103.14C324.503 98.58 323.603 94.2 322.643 90C321.803 85.68 320.663 81.9 319.223 78.66C317.903 75.42 316.103 72.84 313.823 70.92C311.543 69 308.483 68.04 304.643 68.04C302.723 68.04 300.983 68.04 299.423 68.04C297.863 67.92 296.483 67.86 295.283 67.86V135C295.523 137.16 296.483 138.78 298.163 139.86C299.963 140.94 301.883 141.72 303.923 142.2C306.203 142.68 308.843 142.92 311.843 142.92V146.52H270.983V142.92C274.103 142.92 276.863 142.68 279.263 142.2C281.303 141.6 283.163 140.76 284.843 139.68C286.643 138.48 287.543 136.74 287.543 134.46V14.22C287.543 11.82 286.643 10.08 284.843 9C283.163 7.92 281.303 7.08 279.263 6.48C276.863 6 274.103 5.76 270.983 5.76V2.16H303.923C310.403 2.16 315.923 3 320.483 4.68C325.043 6.36 328.763 8.7 331.643 11.7C334.523 14.58 336.623 18 337.943 21.96C339.263 25.8 339.923 29.88 339.923 34.2C339.923 36.6 339.563 39.42 338.843 42.66C338.123 45.78 336.683 48.96 334.523 52.2C332.483 55.32 329.483 58.2 325.523 60.84C321.683 63.48 316.583 65.4 310.223 66.6C314.543 67.56 318.023 69.24 320.663 71.64C323.423 73.92 325.583 76.62 327.143 79.74C328.823 82.86 330.143 86.34 331.103 90.18C332.063 93.9 332.963 97.68 333.803 101.52C334.883 106.68 335.843 111.78 336.683 116.82C337.523 121.86 338.483 126.36 339.563 130.32C340.643 134.28 341.963 137.52 343.523 140.04C345.083 142.44 347.183 143.64 349.823 143.64Z"/>
</mask>
<path d="M57.96 2.52H94.86V6.11999C91.74 5.99999 88.98 6.24 86.58 6.83999C84.54 7.32 82.62 8.16 80.82 9.35999C79.14 10.44 78.3 12.18 78.3 14.58L78.12 146.88H74.7L20.16 19.98L20.34 134.82C20.34 137.1 21.18 138.84 22.86 140.04C24.66 141.12 26.58 141.96 28.62 142.56C31.02 143.04 33.78 143.28 36.9 143.28V146.88H2.05636e-06V143.28C3.12 143.28 5.88 143.04 8.28 142.56C10.32 141.96 12.18 141.12 13.86 140.04C15.66 138.84 16.56 137.1 16.56 134.82V13.68C16.56 11.64 15.72 10.14 14.04 9.18C12.36 8.1 10.5 7.32 8.46 6.83999C5.94 6.35999 3.18 6.11999 0.180002 6.11999V2.52H20.16H20.34L74.52 128.7V14.58C74.52 12.18 73.62 10.44 71.82 9.35999C70.14 8.16 68.28 7.32 66.24 6.83999C63.84 6.24 61.08 5.99999 57.96 6.11999V2.52ZM129.867 11.34C121.107 15.66 113.967 21.3 108.447 28.26C102.927 35.1 98.9672 42.66 96.5672 50.94C94.2872 59.22 93.6272 67.92 94.5872 77.04C95.6672 86.04 98.3672 94.92 102.687 103.68C107.007 112.44 112.467 120 119.067 126.36C125.667 132.6 132.927 137.34 140.847 140.58C148.887 143.82 157.347 145.32 166.227 145.08C175.107 144.84 183.927 142.56 192.687 138.24C201.447 133.92 208.587 128.34 214.107 121.5C219.747 114.54 223.707 106.92 225.987 98.64C228.267 90.36 228.927 81.66 227.967 72.54C227.007 63.42 224.367 54.48 220.047 45.72C215.727 36.96 210.207 29.46 203.487 23.22C196.887 16.86 189.567 12.06 181.527 8.82C173.607 5.58 165.207 4.14 156.327 4.5C147.447 4.74 138.627 7.02 129.867 11.34ZM194.127 141.12C185.007 145.68 175.527 148.2 165.687 148.68C155.967 149.28 146.607 148.08 137.607 145.08C128.607 141.96 120.387 137.22 112.947 130.86C105.507 124.5 99.5072 116.76 94.9472 107.64C90.3872 98.4 87.8072 88.92 87.2072 79.2C86.7272 69.36 87.9872 59.94 90.9872 50.94C94.1072 41.94 98.8472 33.72 105.207 26.28C111.567 18.84 119.307 12.84 128.427 8.28C137.667 3.72 147.147 1.2 156.867 0.719998C166.707 0.239997 176.127 1.56 185.127 4.68C194.127 7.68 202.347 12.36 209.787 18.72C217.227 24.96 223.227 32.7 227.787 41.94C232.347 51.06 234.867 60.54 235.347 70.38C235.827 80.1 234.507 89.46 231.387 98.46C228.387 107.46 223.707 115.68 217.347 123.12C211.107 130.56 203.367 136.56 194.127 141.12ZM230.91 2.52H271.77V6.11999C268.65 5.99999 265.89 6.24 263.49 6.83999C261.45 7.32 259.53 8.16 257.73 9.35999C256.05 10.44 255.21 12.18 255.21 14.58V135.36C255.45 137.52 256.41 139.14 258.09 140.22C259.89 141.3 261.81 142.08 263.85 142.56C266.13 143.04 268.77 143.28 271.77 143.28V146.88H230.91V143.28C234.03 143.28 236.79 143.04 239.19 142.56C241.23 141.96 243.09 141.12 244.77 140.04C246.57 138.84 247.47 137.1 247.47 134.82V14.58C247.47 12.18 246.57 10.44 244.77 9.35999C243.09 8.16 241.23 7.32 239.19 6.83999C236.79 6.24 234.03 5.99999 230.91 6.11999V2.52ZM332.003 33.12C332.003 27.6 331.283 23.1 329.843 19.62C328.403 16.14 326.483 13.38 324.083 11.34C321.803 9.18 319.283 7.68 316.523 6.83999C313.763 5.88 311.003 5.28 308.243 5.04C307.283 5.04 306.023 5.1 304.463 5.21999C303.023 5.34 301.583 5.7 300.143 6.3C298.823 6.9 297.683 7.86 296.723 9.18C295.763 10.5 295.283 12.36 295.283 14.76V65.16H296.003C307.643 65.16 316.523 62.7 322.643 57.78C328.883 52.86 332.003 44.64 332.003 33.12ZM349.823 143.64H354.323V146.88H350.183C345.263 146.88 341.363 145.62 338.483 143.1C335.723 140.46 333.503 137.1 331.823 133.02C330.263 128.82 329.063 124.14 328.223 118.98C327.383 113.7 326.423 108.42 325.343 103.14C324.503 98.58 323.603 94.2 322.643 90C321.803 85.68 320.663 81.9 319.223 78.66C317.903 75.42 316.103 72.84 313.823 70.92C311.543 69 308.483 68.04 304.643 68.04C302.723 68.04 300.983 68.04 299.423 68.04C297.863 67.92 296.483 67.86 295.283 67.86V135C295.523 137.16 296.483 138.78 298.163 139.86C299.963 140.94 301.883 141.72 303.923 142.2C306.203 142.68 308.843 142.92 311.843 142.92V146.52H270.983V142.92C274.103 142.92 276.863 142.68 279.263 142.2C281.303 141.6 283.163 140.76 284.843 139.68C286.643 138.48 287.543 136.74 287.543 134.46V14.22C287.543 11.82 286.643 10.08 284.843 9C283.163 7.92 281.303 7.08 279.263 6.48C276.863 6 274.103 5.76 270.983 5.76V2.16H303.923C310.403 2.16 315.923 3 320.483 4.68C325.043 6.36 328.763 8.7 331.643 11.7C334.523 14.58 336.623 18 337.943 21.96C339.263 25.8 339.923 29.88 339.923 34.2C339.923 36.6 339.563 39.42 338.843 42.66C338.123 45.78 336.683 48.96 334.523 52.2C332.483 55.32 329.483 58.2 325.523 60.84C321.683 63.48 316.583 65.4 310.223 66.6C314.543 67.56 318.023 69.24 320.663 71.64C323.423 73.92 325.583 76.62 327.143 79.74C328.823 82.86 330.143 86.34 331.103 90.18C332.063 93.9 332.963 97.68 333.803 101.52C334.883 106.68 335.843 111.78 336.683 116.82C337.523 121.86 338.483 126.36 339.563 130.32C340.643 134.28 341.963 137.52 343.523 140.04C345.083 142.44 347.183 143.64 349.823 143.64Z" fill="black"/>
<path d="M57.96 2.51999V1.51999H56.96V2.51999H57.96ZM94.86 2.51999H95.86V1.51999H94.86V2.51999ZM94.86 6.12L94.8216 7.11925L95.86 7.15919V6.12H94.86ZM86.58 6.84L86.8091 7.81351L86.8226 7.81013L86.58 6.84ZM80.82 9.36L81.3608 10.2012L81.3678 10.1967L81.3747 10.192L80.82 9.36ZM78.3 14.58L79.3 14.5814V14.58H78.3ZM78.12 146.88V147.88H79.1186L79.12 146.881L78.12 146.88ZM74.7 146.88L73.7813 147.275L74.0414 147.88H74.7V146.88ZM20.16 19.98L21.0787 19.5851L19.16 19.9816L20.16 19.98ZM20.34 134.82H21.34V134.818L20.34 134.82ZM22.86 140.04L22.2788 140.854L22.3113 140.877L22.3455 140.897L22.86 140.04ZM28.62 142.56L28.3378 143.519L28.3804 143.532L28.4239 143.541L28.62 142.56ZM36.9 143.28H37.9V142.28H36.9V143.28ZM36.9 146.88V147.88H37.9V146.88H36.9ZM-1.52588e-05 146.88H-1.00002V147.88H-1.52588e-05V146.88ZM-1.52588e-05 143.28V142.28H-1.00002V143.28H-1.52588e-05ZM8.28001 142.56L8.47612 143.541L8.51964 143.532L8.56218 143.519L8.28001 142.56ZM13.86 140.04L14.4007 140.881L14.4078 140.877L14.4147 140.872L13.86 140.04ZM14.04 9.17999L13.4993 10.0212L13.5212 10.0353L13.5439 10.0482L14.04 9.17999ZM8.46001 6.84L8.68901 5.86658L8.6682 5.86166L8.64714 5.85765L8.46001 6.84ZM0.179977 6.12H-0.820023V7.12H0.179977V6.12ZM0.179977 2.51999V1.51999H-0.820023V2.51999H0.179977ZM20.34 2.51999L21.2589 2.12544L20.9989 1.51999H20.34V2.51999ZM74.52 128.7L73.6011 129.095L75.52 128.7H74.52ZM71.82 9.36L71.2388 10.1737L71.2713 10.1969L71.3055 10.2175L71.82 9.36ZM66.24 6.84L65.9974 7.81023L66.011 7.81342L66.24 6.84ZM57.96 6.12H56.96V7.15919L57.9985 7.11925L57.96 6.12ZM57.96 2.51999V3.51999H94.86V2.51999V1.51999H57.96V2.51999ZM94.86 2.51999H93.86V6.12H94.86H95.86V2.51999H94.86ZM94.86 6.12L94.8984 5.12073C91.7074 4.998 88.8497 5.24182 86.3374 5.86986L86.58 6.84L86.8226 7.81013C89.1104 7.23817 91.7726 7.00198 94.8216 7.11925L94.86 6.12ZM86.58 6.84L86.3509 5.86658C84.1911 6.37479 82.1613 7.26395 80.2653 8.52794L80.82 9.36L81.3747 10.192C83.0787 9.05605 84.8889 8.26521 86.8091 7.81342L86.58 6.84ZM80.82 9.36L80.2792 8.51881C78.2521 9.82198 77.3 11.9191 77.3 14.58H78.3H79.3C79.3 12.4409 80.0279 11.058 81.3608 10.2012L80.82 9.36ZM78.3 14.58L77.3 14.5786L77.12 146.879L78.12 146.88L79.12 146.881L79.3 14.5814L78.3 14.58ZM78.12 146.88V145.88H74.7V146.88V147.88H78.12V146.88ZM74.7 146.88L75.6188 146.485L21.0787 19.5851L20.16 19.98L19.2413 20.3749L73.7813 147.275L74.7 146.88ZM20.16 19.98L19.16 19.9816L19.34 134.822L20.34 134.82L21.34 134.818L21.16 19.9784L20.16 19.98ZM20.34 134.82H19.34C19.34 137.384 20.3056 139.444 22.2788 140.854L22.86 140.04L23.4413 139.226C22.0544 138.236 21.34 136.816 21.34 134.82H20.34ZM22.86 140.04L22.3455 140.897C24.2193 142.022 26.2175 142.896 28.3378 143.519L28.62 142.56L28.9021 141.601C26.9426 141.024 25.1008 140.218 23.3745 139.183L22.86 140.04ZM28.62 142.56L28.4239 143.541C30.9032 144.036 33.7311 144.28 36.9 144.28V143.28V142.28C33.8288 142.28 31.1368 142.044 28.8161 141.579L28.62 142.56ZM36.9 143.28H35.9V146.88H36.9H37.9V143.28H36.9ZM36.9 146.88V145.88H-1.52588e-05V146.88V147.88H36.9V146.88ZM-1.52588e-05 146.88H0.999985V143.28H-1.52588e-05H-1.00002V146.88H-1.52588e-05ZM-1.52588e-05 143.28V144.28C3.16887 144.28 5.99681 144.036 8.47612 143.541L8.28001 142.56L8.08391 141.579C5.76323 142.044 3.07115 142.28 -1.52588e-05 142.28V143.28ZM8.28001 142.56L8.56218 143.519C10.6877 142.894 12.6356 142.016 14.4007 140.881L13.86 140.04L13.3193 139.199C11.7244 140.224 9.95238 141.026 7.99785 141.601L8.28001 142.56ZM13.86 140.04L14.4147 140.872C16.5104 139.475 17.56 137.413 17.56 134.82H16.56H15.56C15.56 136.787 14.8097 138.205 13.3053 139.208L13.86 140.04ZM16.56 134.82H17.56V13.68H16.56H15.56V134.82H16.56ZM16.56 13.68H17.56C17.56 11.3051 16.548 9.46138 14.5361 8.31175L14.04 9.17999L13.5439 10.0482C14.892 10.8186 15.56 11.9749 15.56 13.68H16.56ZM14.04 9.17999L14.5807 8.33882C12.8005 7.19435 10.8342 6.37132 8.68901 5.86658L8.46001 6.84L8.23094 7.81342C10.1658 8.26868 11.9195 9.00565 13.4993 10.0212L14.04 9.17999ZM8.46001 6.84L8.64714 5.85765C6.05614 5.36414 3.23253 5.12 0.179977 5.12V6.12V7.12C3.12749 7.12 5.8239 7.35585 8.27287 7.82233L8.46001 6.84ZM0.179977 6.12H1.17998V2.51999H0.179977H-0.820023V6.12H0.179977ZM0.179977 2.51999V3.51999H20.16V2.51999V1.51999H0.179977V2.51999ZM20.16 2.51999V3.51999H20.34V2.51999V1.51999H20.16V2.51999ZM20.34 2.51999L19.4211 2.91455L73.6011 129.095L74.52 128.7L75.4389 128.305L21.2589 2.12544L20.34 2.51999ZM74.52 128.7H75.52V14.58H74.52H73.52V128.7H74.52ZM74.52 14.58H75.52C75.52 11.8886 74.4837 9.79205 72.3345 8.5025L71.82 9.36L71.3055 10.2175C72.7563 11.0879 73.52 12.4714 73.52 14.58H74.52ZM71.82 9.36L72.4012 8.54626C70.6137 7.26947 68.6338 6.37592 66.469 5.86658L66.24 6.84L66.011 7.81342C67.9263 8.26407 69.6663 9.05052 71.2388 10.1737L71.82 9.36ZM66.24 6.84L66.4825 5.86986C63.9704 5.24182 61.1126 4.998 57.9216 5.12073L57.96 6.12L57.9985 7.11925C61.0474 7.00198 63.7096 7.23817 65.9975 7.81013L66.24 6.84ZM57.96 6.12H58.96V2.51999H57.96H56.96V6.12H57.96ZM129.867 11.34L130.309 12.2369V12.2369L129.867 11.34ZM108.447 28.26L109.225 28.888L109.231 28.8814L108.447 28.26ZM96.5672 50.94L95.6066 50.6616L95.6031 50.6745L96.5672 50.94ZM94.5872 77.04L93.5927 77.1447L93.5934 77.1519L93.5943 77.1591L94.5872 77.04ZM102.687 103.68L101.79 104.122V104.122L102.687 103.68ZM119.067 126.36L118.373 127.08L118.38 127.087L119.067 126.36ZM140.847 140.58L140.469 141.506L140.473 141.508L140.847 140.58ZM166.227 145.08L166.2 144.08V144.08L166.227 145.08ZM192.687 138.24L193.13 139.137V139.137L192.687 138.24ZM214.107 121.5L213.33 120.87L213.329 120.872L214.107 121.5ZM225.987 98.64L226.951 98.9055V98.9055L225.987 98.64ZM227.967 72.54L226.973 72.6447V72.6447L227.967 72.54ZM203.487 23.22L202.793 23.9401L202.8 23.9465L202.807 23.9528L203.487 23.22ZM181.527 8.82001L181.149 9.74556L181.153 9.74751L181.527 8.82001ZM156.327 4.5L156.354 5.49973L156.368 5.49918L156.327 4.5ZM194.127 141.12L193.685 140.223L193.68 140.226L194.127 141.12ZM165.687 148.68L165.638 147.681L165.626 147.682L165.687 148.68ZM137.607 145.08L137.28 146.025L137.291 146.029L137.607 145.08ZM112.947 130.86L112.297 131.62V131.62L112.947 130.86ZM94.9472 107.64L94.0505 108.083L94.0528 108.087L94.9472 107.64ZM87.2072 79.2L86.2083 79.2487L86.2091 79.2616L87.2072 79.2ZM90.9872 50.94L90.0423 50.6124L90.0385 50.6238L90.9872 50.94ZM105.207 26.28L105.967 26.9298V26.9298L105.207 26.28ZM128.427 8.28L127.985 7.38324L127.98 7.38557L128.427 8.28ZM156.867 0.720001L156.818 -0.278809L156.818 -0.278778L156.867 0.720001ZM185.127 4.68001L184.8 5.62491L184.811 5.62868L185.127 4.68001ZM209.787 18.72L209.137 19.4802L209.145 19.4862L209.787 18.72ZM227.787 41.94L226.89 42.3826L226.893 42.3872L227.787 41.94ZM235.347 70.38L234.348 70.4287L234.348 70.4293L235.347 70.38ZM231.387 98.46L230.442 98.1324L230.439 98.1438L231.387 98.46ZM217.347 123.12L216.587 122.47L216.581 122.477L217.347 123.12ZM129.867 11.34L129.425 10.4431C120.546 14.822 113.284 20.5515 107.664 27.6386L108.447 28.26L109.231 28.8814C114.65 22.0485 121.669 16.498 130.309 12.2369L129.867 11.34ZM108.447 28.26L107.669 27.632C102.067 34.5732 98.0444 42.2516 95.6067 50.6616L96.5672 50.94L97.5276 51.2184C99.89 43.0684 103.787 35.6268 109.225 28.888L108.447 28.26ZM96.5672 50.94L95.6031 50.6745C93.2877 59.0829 92.6205 67.909 93.5927 77.1447L94.5872 77.04L95.5817 76.9353C94.6339 67.931 95.2867 59.3571 97.5313 51.2055L96.5672 50.94ZM94.5872 77.04L93.5943 77.1591C94.6888 86.2799 97.4242 95.2687 101.79 104.122L102.687 103.68L103.584 103.238C99.3102 94.5713 96.6456 85.8001 95.5801 76.9209L94.5872 77.04ZM102.687 103.68L101.79 104.122C106.158 112.979 111.685 120.635 118.373 127.08L119.067 126.36L119.761 125.64C113.25 119.365 107.856 111.901 103.584 103.238L102.687 103.68ZM119.067 126.36L118.38 127.087C125.064 133.406 132.427 138.216 140.469 141.506L140.847 140.58L141.226 139.654C133.427 136.464 126.27 131.794 119.754 125.633L119.067 126.36ZM140.847 140.58L140.473 141.508C148.644 144.8 157.241 146.323 166.254 146.08L166.227 145.08L166.2 144.08C157.454 144.317 149.131 142.84 141.221 139.652L140.847 140.58ZM166.227 145.08L166.254 146.08C175.292 145.835 184.253 143.514 193.13 139.137L192.687 138.24L192.245 137.343C183.601 141.606 174.922 143.845 166.2 144.08L166.227 145.08ZM192.687 138.24L193.13 139.137C202.005 134.76 209.265 129.093 214.885 122.128L214.107 121.5L213.329 120.872C207.91 127.587 200.889 133.08 192.245 137.343L192.687 138.24ZM214.107 121.5L214.884 122.13C220.607 115.067 224.633 107.324 226.951 98.9055L225.987 98.64L225.023 98.3745C222.781 106.516 218.887 114.013 213.33 120.87L214.107 121.5ZM225.987 98.64L226.951 98.9055C229.267 90.4971 229.934 81.671 228.962 72.4353L227.967 72.54L226.973 72.6447C227.921 81.649 227.268 90.2229 225.023 98.3745L225.987 98.64ZM227.967 72.54L228.962 72.4353C227.989 63.1904 225.313 54.1367 220.944 45.2777L220.047 45.72L219.15 46.1623C223.422 54.8233 226.026 63.6496 226.973 72.6447L227.967 72.54ZM220.047 45.72L220.944 45.2777C216.574 36.4157 210.983 28.8153 204.168 22.4872L203.487 23.22L202.807 23.9528C209.432 30.1047 214.881 37.5043 219.15 46.1623L220.047 45.72ZM203.487 23.22L204.181 22.4999C197.494 16.0561 190.067 11.1832 181.901 7.89249L181.527 8.82001L181.153 9.74751C189.068 12.9368 196.28 17.6639 202.793 23.9401L203.487 23.22ZM181.527 8.82001L181.906 7.89445C173.848 4.59801 165.304 3.13524 156.287 3.50082L156.327 4.5L156.368 5.49918C165.11 5.14476 173.367 6.562 181.149 9.74554L181.527 8.82001ZM156.327 4.5L156.3 3.50037C147.262 3.74464 138.301 6.06573 129.425 10.4431L129.867 11.34L130.309 12.2369C138.953 7.97426 147.632 5.73537 156.354 5.49963L156.327 4.5ZM194.127 141.12L193.68 140.226C184.68 144.726 175.335 147.208 165.638 147.681L165.687 148.68L165.736 149.679C175.719 149.192 185.335 146.634 194.574 142.014L194.127 141.12ZM165.687 148.68L165.626 147.682C156.03 148.274 146.799 147.09 137.923 144.131L137.607 145.08L137.291 146.029C146.416 149.07 155.904 150.286 165.749 149.678L165.687 148.68ZM137.607 145.08L137.935 144.135C129.056 141.057 120.945 136.381 113.597 130.1L112.947 130.86L112.297 131.62C119.83 138.059 128.158 142.863 137.28 146.025L137.607 145.08ZM112.947 130.86L113.597 130.1C106.263 123.83 100.344 116.198 95.8416 107.193L94.9472 107.64L94.0528 108.087C98.67 117.322 104.752 125.17 112.297 131.62L112.947 130.86ZM94.9472 107.64L95.8439 107.197C91.3392 98.0694 88.7966 88.7184 88.2053 79.1384L87.2072 79.2L86.2091 79.2616C86.8177 89.1217 89.4352 98.7306 94.0505 108.083L94.9472 107.64ZM87.2072 79.2L88.206 79.1513C87.7318 69.4301 88.9765 60.1342 91.9359 51.2562L90.9872 50.94L90.0385 50.6238C86.9978 59.7458 85.7226 69.2899 86.2084 79.2487L87.2072 79.2ZM90.9872 50.94L91.9321 51.2675C95.01 42.3888 99.6862 34.2775 105.967 26.9298L105.207 26.28L104.447 25.6302C98.0082 33.1625 93.2044 41.4912 90.0423 50.6124L90.9872 50.94ZM105.207 26.28L105.967 26.9298C112.237 19.5957 119.869 13.6772 128.874 9.17442L128.427 8.28L127.98 7.38557C118.745 12.0028 110.898 18.0843 104.447 25.6302L105.207 26.28ZM128.427 8.28L128.87 9.17674C137.994 4.67368 147.341 2.19164 156.917 1.71878L156.867 0.720001L156.818 -0.278778C146.953 0.208359 137.34 2.76631 127.985 7.38326L128.427 8.28ZM156.867 0.720001L156.916 1.71881C166.633 1.24483 175.925 2.54816 184.8 5.62483L185.127 4.68001L185.455 3.73517C176.33 0.571838 166.782 -0.764832 156.818 -0.278809L156.867 0.720001ZM185.127 4.68001L184.811 5.62868C193.685 8.58661 201.792 13.2012 209.137 19.4801L209.787 18.72L210.437 17.9599C202.902 11.5188 194.57 6.77338 185.443 3.73132L185.127 4.68001ZM209.787 18.72L209.145 19.4862C216.472 25.6317 222.388 33.2591 226.89 42.3826L227.787 41.94L228.684 41.4975C224.066 32.1409 217.982 24.2883 210.43 17.9538L209.787 18.72ZM227.787 41.94L226.893 42.3872C231.393 51.3875 233.875 60.7322 234.348 70.4287L235.347 70.38L236.346 70.3313C235.859 60.3478 233.301 50.7325 228.682 41.4928L227.787 41.94ZM235.347 70.38L234.348 70.4293C234.822 80.0242 233.519 89.2561 230.442 98.1325L231.387 98.46L232.332 98.7875C235.495 89.6639 236.832 80.1758 236.346 70.3307L235.347 70.38ZM231.387 98.46L230.439 98.1438C227.481 107.018 222.866 115.125 216.587 122.47L217.347 123.12L218.107 123.77C224.548 116.235 229.294 107.902 232.336 98.7762L231.387 98.46ZM217.347 123.12L216.581 122.477C210.435 129.805 202.808 135.721 193.685 140.223L194.127 141.12L194.57 142.017C203.926 137.399 211.779 131.315 218.113 123.763L217.347 123.12ZM230.91 2.51999V1.51999H229.91V2.51999H230.91ZM271.77 2.51999H272.77V1.51999H271.77V2.51999ZM271.77 6.12L271.732 7.11925L272.77 7.15919V6.12H271.77ZM263.49 6.84L263.72 7.81351L263.733 7.81013L263.49 6.84ZM257.73 9.36L258.271 10.2012L258.278 10.1967L258.285 10.192L257.73 9.36ZM255.21 135.36H254.21V135.415L254.217 135.47L255.21 135.36ZM258.09 140.22L257.55 141.061L257.563 141.07L257.576 141.077L258.09 140.22ZM263.85 142.56L263.621 143.533L263.633 143.536L263.644 143.539L263.85 142.56ZM271.77 143.28H272.77V142.28H271.77V143.28ZM271.77 146.88V147.88H272.77V146.88H271.77ZM230.91 146.88H229.91V147.88H230.91V146.88ZM230.91 143.28V142.28H229.91V143.28H230.91ZM239.19 142.56L239.387 143.541L239.43 143.532L239.473 143.519L239.19 142.56ZM244.77 140.04L245.311 140.881L245.318 140.877L245.325 140.872L244.77 140.04ZM244.77 9.36L244.189 10.1737L244.222 10.1969L244.256 10.2175L244.77 9.36ZM239.19 6.84L238.948 7.81023L238.961 7.81342L239.19 6.84ZM230.91 6.12H229.91V7.15919L230.949 7.11925L230.91 6.12ZM230.91 2.51999V3.51999H271.77V2.51999V1.51999H230.91V2.51999ZM271.77 2.51999H270.77V6.12H271.77H272.77V2.51999H271.77ZM271.77 6.12L271.809 5.12073C268.618 4.998 265.76 5.24182 263.248 5.86986L263.49 6.84L263.733 7.81013C266.021 7.23817 268.683 7.00198 271.732 7.11925L271.77 6.12ZM263.49 6.84L263.261 5.86658C261.102 6.37479 259.072 7.26395 257.176 8.52794L257.73 9.36L258.285 10.192C259.989 9.05605 261.799 8.26521 263.72 7.81342L263.49 6.84ZM257.73 9.36L257.19 8.51881C255.163 9.82198 254.21 11.9191 254.21 14.58H255.21H256.21C256.21 12.4409 256.938 11.058 258.271 10.2012L257.73 9.36ZM255.21 14.58H254.21V135.36H255.21H256.21V14.58H255.21ZM255.21 135.36L254.217 135.47C254.486 137.9 255.592 139.803 257.55 141.061L258.09 140.22L258.631 139.379C257.229 138.477 256.414 137.14 256.204 135.25L255.21 135.36ZM258.09 140.22L257.576 141.077C259.464 142.211 261.481 143.03 263.621 143.533L263.85 142.56L264.08 141.587C262.14 141.13 260.317 140.389 258.605 139.363L258.09 140.22ZM263.85 142.56L263.644 143.539C266.008 144.036 268.72 144.28 271.77 144.28V143.28V142.28C268.821 142.28 266.253 142.044 264.057 141.581L263.85 142.56ZM271.77 143.28H270.77V146.88H271.77H272.77V143.28H271.77ZM271.77 146.88V145.88H230.91V146.88V147.88H271.77V146.88ZM230.91 146.88H231.91V143.28H230.91H229.91V146.88H230.91ZM230.91 143.28V144.28C234.079 144.28 236.907 144.036 239.387 143.541L239.19 142.56L238.994 141.579C236.674 142.044 233.982 142.28 230.91 142.28V143.28ZM239.19 142.56L239.473 143.519C241.598 142.894 243.546 142.016 245.311 140.881L244.77 140.04L244.23 139.199C242.635 140.224 240.863 141.026 238.908 141.601L239.19 142.56ZM244.77 140.04L245.325 140.872C247.421 139.475 248.47 137.413 248.47 134.82H247.47H246.47C246.47 136.787 245.72 138.205 244.216 139.208L244.77 140.04ZM247.47 134.82H248.47V14.58H247.47H246.47V134.82H247.47ZM247.47 14.58H248.47C248.47 11.8886 247.434 9.79205 245.285 8.5025L244.77 9.36L244.256 10.2175C245.707 11.0879 246.47 12.4714 246.47 14.58H247.47ZM244.77 9.36L245.352 8.54626C243.564 7.26947 241.584 6.37592 239.419 5.86658L239.19 6.84L238.961 7.81342C240.877 8.26407 242.617 9.05052 244.189 10.1737L244.77 9.36ZM239.19 6.84L239.433 5.86986C236.921 5.24182 234.063 4.998 230.872 5.12073L230.91 6.12L230.949 7.11925C233.998 7.00198 236.66 7.23817 238.948 7.81013L239.19 6.84ZM230.91 6.12H231.91V2.51999H230.91H229.91V6.12H230.91ZM329.843 19.62L328.919 20.0023V20.0024L329.843 19.62ZM324.083 11.34L323.395 12.0659L323.415 12.0845L323.435 12.1019L324.083 11.34ZM316.523 6.84L316.195 7.78448L316.213 7.79095L316.232 7.79666L316.523 6.84ZM308.243 5.03999L308.33 4.04376L308.286 4.03999H308.243V5.03999ZM304.463 5.22L304.386 4.22292L304.38 4.22345L304.463 5.22ZM300.143 6.3L299.758 5.37692L299.744 5.38304L299.729 5.38963L300.143 6.3ZM296.723 9.17999L295.914 8.59183V8.59183L296.723 9.17999ZM295.283 65.16H294.283V66.16H295.283V65.16ZM322.643 57.78L322.024 56.9947L322.016 57.0006L322.643 57.78ZM354.323 143.64H355.323V142.64H354.323V143.64ZM354.323 146.88V147.88H355.323V146.88H354.323ZM338.483 143.1L337.792 143.823L337.808 143.838L337.825 143.853L338.483 143.1ZM331.823 133.02L330.886 133.368L330.892 133.385L330.898 133.401L331.823 133.02ZM328.223 118.98L327.235 119.137L327.236 119.141L328.223 118.98ZM325.343 103.14L324.36 103.321L324.361 103.331L324.363 103.34L325.343 103.14ZM322.643 90L321.661 90.1909L321.664 90.2069L321.668 90.2228L322.643 90ZM319.223 78.66L318.297 79.0373L318.303 79.0518L318.309 79.0661L319.223 78.66ZM313.823 70.92L314.467 70.1551V70.1551L313.823 70.92ZM299.423 68.04L299.346 69.0371L299.385 69.04H299.423V68.04ZM295.283 67.86V66.86H294.283V67.86H295.283ZM295.283 135H294.283V135.055L294.289 135.11L295.283 135ZM298.163 139.86L297.622 140.701L297.635 140.71L297.648 140.717L298.163 139.86ZM303.923 142.2L303.694 143.173L303.705 143.176L303.717 143.179L303.923 142.2ZM311.843 142.92H312.843V141.92H311.843V142.92ZM311.843 146.52V147.52H312.843V146.52H311.843ZM270.983 146.52H269.983V147.52H270.983V146.52ZM270.983 142.92V141.92H269.983V142.92H270.983ZM279.263 142.2L279.459 143.181L279.503 143.172L279.545 143.159L279.263 142.2ZM284.843 139.68L285.384 140.521L285.391 140.517L285.398 140.512L284.843 139.68ZM284.843 9L284.302 9.84117L284.315 9.84953L284.329 9.8575L284.843 9ZM279.263 6.48L279.545 5.52063L279.503 5.50812L279.459 5.49942L279.263 6.48ZM270.983 5.75999H269.983V6.75999H270.983V5.75999ZM270.983 2.16V1.16H269.983V2.16H270.983ZM320.483 4.68001L320.829 3.74165V3.74165L320.483 4.68001ZM331.643 11.7L330.922 12.3925L330.929 12.3999L330.936 12.4071L331.643 11.7ZM337.943 21.96L336.994 22.2762L336.997 22.2851L337.943 21.96ZM338.843 42.66L339.817 42.8849L339.819 42.8769L338.843 42.66ZM334.523 52.2L333.691 51.6453L333.686 51.6527L334.523 52.2ZM325.523 60.84L324.968 60.0079L324.962 60.0119L324.956 60.016L325.523 60.84ZM310.223 66.6L310.038 65.6173L310.006 67.5762L310.223 66.6ZM320.663 71.64L319.99 72.3799L320.008 72.3959L320.026 72.411L320.663 71.64ZM327.143 79.74L326.249 80.1872L326.255 80.2008L326.262 80.2141L327.143 79.74ZM331.103 90.18L330.133 90.4225L330.135 90.4299L331.103 90.18ZM333.803 101.52L334.782 101.315L334.78 101.306L333.803 101.52ZM336.683 116.82L337.669 116.656V116.656L336.683 116.82ZM339.563 130.32L340.528 130.057V130.057L339.563 130.32ZM343.523 140.04L342.673 140.566L342.679 140.576L342.684 140.585L343.523 140.04ZM332.003 33.12H333.003C333.003 27.5246 332.275 22.8815 330.767 19.2376L329.843 19.62L328.919 20.0024C330.291 23.3185 331.003 27.6754 331.003 33.12H332.003ZM329.843 19.62L330.767 19.2376C329.278 15.6395 327.273 12.7391 324.731 10.5781L324.083 11.34L323.435 12.1019C325.693 14.0209 327.528 16.6405 328.919 20.0023L329.843 19.62ZM324.083 11.34L324.771 10.614C322.388 8.35707 319.735 6.77235 316.814 5.88332L316.523 6.84L316.232 7.79666C318.831 8.58763 321.218 10.0029 323.395 12.0659L324.083 11.34ZM316.523 6.84L316.851 5.89549C314.018 4.90979 311.176 4.29131 308.33 4.04376L308.243 5.03999L308.156 6.03624C310.83 6.26869 313.508 6.8502 316.195 7.78448L316.523 6.84ZM308.243 5.03999V4.03999C307.247 4.03999 305.958 4.10204 304.386 4.22295L304.463 5.22L304.54 6.21704C306.088 6.09796 307.319 6.03999 308.243 6.03999V5.03999ZM304.463 5.22L304.38 4.22345C302.828 4.35275 301.287 4.74007 299.758 5.37692L300.143 6.3L300.528 7.22308C301.879 6.65993 303.218 6.32724 304.546 6.21654L304.463 5.22ZM300.143 6.3L299.729 5.38963C298.233 6.06975 296.963 7.15001 295.914 8.59183L296.723 9.17999L297.532 9.76817C298.403 8.56999 299.413 7.73026 300.557 7.21037L300.143 6.3ZM296.723 9.17999L295.914 8.59183C294.784 10.1462 294.283 12.2436 294.283 14.76H295.283H296.283C296.283 12.4765 296.742 10.8538 297.532 9.76817L296.723 9.17999ZM295.283 14.76H294.283V65.16H295.283H296.283V14.76H295.283ZM295.283 65.16V66.16H296.003V65.16V64.16H295.283V65.16ZM296.003 65.16V66.16C307.765 66.16 316.904 63.6768 323.27 58.5594L322.643 57.78L322.016 57.0006C316.142 61.7232 307.521 64.16 296.003 64.16V65.16ZM322.643 57.78L323.262 58.5653C329.836 53.3817 333.003 44.8028 333.003 33.12H332.003H331.003C331.003 44.4772 327.93 52.3383 322.024 56.9947L322.643 57.78ZM349.823 143.64V144.64H354.323V143.64V142.64H349.823V143.64ZM354.323 143.64H353.323V146.88H354.323H355.323V143.64H354.323ZM354.323 146.88V145.88H350.183V146.88V147.88H354.323V146.88ZM350.183 146.88V145.88C345.434 145.88 341.792 144.667 339.142 142.347L338.483 143.1L337.825 143.853C340.934 146.573 345.092 147.88 350.183 147.88V146.88ZM338.483 143.1L339.174 142.377C336.529 139.848 334.383 136.61 332.748 132.639L331.823 133.02L330.898 133.401C332.623 137.59 334.916 141.072 337.792 143.823L338.483 143.1ZM331.823 133.02L332.76 132.672C331.226 128.542 330.041 123.926 329.21 118.819L328.223 118.98L327.236 119.141C328.085 124.354 329.3 129.098 330.886 133.368L331.823 133.02ZM328.223 118.98L329.211 118.823C328.368 113.528 327.406 108.234 326.323 102.94L325.343 103.14L324.363 103.34C325.44 108.606 326.398 113.872 327.235 119.137L328.223 118.98ZM325.343 103.14L326.326 102.959C325.484 98.3859 324.581 93.992 323.618 89.7772L322.643 90L321.668 90.2228C322.625 94.408 323.522 98.7741 324.36 103.321L325.343 103.14ZM322.643 90L323.625 89.8091C322.773 85.432 321.614 81.577 320.137 78.2539L319.223 78.66L318.309 79.0661C319.712 82.223 320.832 85.928 321.661 90.1909L322.643 90ZM319.223 78.66L320.149 78.2827C318.778 74.9186 316.891 72.1963 314.467 70.1551L313.823 70.92L313.179 71.6849C315.315 73.4837 317.027 75.9214 318.297 79.0373L319.223 78.66ZM313.823 70.92L314.467 70.1551C311.96 68.0439 308.649 67.04 304.643 67.04V68.04V69.04C308.317 69.04 311.126 69.9561 313.179 71.6849L313.823 70.92ZM304.643 68.04V67.04C304.639 67.04 304.635 67.04 304.632 67.04C304.628 67.04 304.624 67.04 304.621 67.04C304.617 67.04 304.613 67.04 304.609 67.04C304.606 67.04 304.602 67.04 304.598 67.04C304.594 67.04 304.59 67.04 304.587 67.04C304.583 67.04 304.579 67.04 304.576 67.04C304.572 67.04 304.568 67.04 304.564 67.04C304.561 67.04 304.557 67.04 304.553 67.04C304.549 67.04 304.546 67.04 304.542 67.04C304.538 67.04 304.534 67.04 304.531 67.04C304.527 67.04 304.523 67.04 304.519 67.04C304.516 67.04 304.512 67.04 304.508 67.04C304.505 67.04 304.501 67.04 304.497 67.04C304.493 67.04 304.49 67.04 304.486 67.04C304.482 67.04 304.478 67.04 304.475 67.04C304.471 67.04 304.467 67.04 304.464 67.04C304.46 67.04 304.456 67.04 304.452 67.04C304.449 67.04 304.445 67.04 304.441 67.04C304.437 67.04 304.434 67.04 304.43 67.04C304.426 67.04 304.423 67.04 304.419 67.04C304.415 67.04 304.411 67.04 304.408 67.04C304.404 67.04 304.4 67.04 304.396 67.04C304.393 67.04 304.389 67.04 304.385 67.04C304.382 67.04 304.378 67.04 304.374 67.04C304.37 67.04 304.367 67.04 304.363 67.04C304.359 67.04 304.356 67.04 304.352 67.04C304.348 67.04 304.344 67.04 304.341 67.04C304.337 67.04 304.333 67.04 304.33 67.04C304.326 67.04 304.322 67.04 304.318 67.04C304.315 67.04 304.311 67.04 304.307 67.04C304.304 67.04 304.3 67.04 304.296 67.04C304.293 67.04 304.289 67.04 304.285 67.04C304.281 67.04 304.278 67.04 304.274 67.04C304.27 67.04 304.267 67.04 304.263 67.04C304.259 67.04 304.255 67.04 304.252 67.04C304.248 67.04 304.244 67.04 304.241 67.04C304.237 67.04 304.233 67.04 304.23 67.04C304.226 67.04 304.222 67.04 304.218 67.04C304.215 67.04 304.211 67.04 304.207 67.04C304.204 67.04 304.2 67.04 304.196 67.04C304.193 67.04 304.189 67.04 304.185 67.04C304.181 67.04 304.178 67.04 304.174 67.04C304.17 67.04 304.167 67.04 304.163 67.04C304.159 67.04 304.156 67.04 304.152 67.04C304.148 67.04 304.145 67.04 304.141 67.04C304.137 67.04 304.133 67.04 304.13 67.04C304.126 67.04 304.122 67.04 304.119 67.04C304.115 67.04 304.111 67.04 304.108 67.04C304.104 67.04 304.1 67.04 304.097 67.04C304.093 67.04 304.089 67.04 304.086 67.04C304.082 67.04 304.078 67.04 304.075 67.04C304.071 67.04 304.067 67.04 304.064 67.04C304.06 67.04 304.056 67.04 304.053 67.04C304.049 67.04 304.045 67.04 304.041 67.04C304.038 67.04 304.034 67.04 304.03 67.04C304.027 67.04 304.023 67.04 304.019 67.04C304.016 67.04 304.012 67.04 304.008 67.04C304.005 67.04 304.001 67.04 303.997 67.04C303.994 67.04 303.99 67.04 303.986 67.04C303.983 67.04 303.979 67.04 303.975 67.04C303.972 67.04 303.968 67.04 303.964 67.04C303.961 67.04 303.957 67.04 303.953 67.04C303.95 67.04 303.946 67.04 303.942 67.04C303.939 67.04 303.935 67.04 303.931 67.04C303.928 67.04 303.924 67.04 303.92 67.04C303.917 67.04 303.913 67.04 303.909 67.04C303.906 67.04 303.902 67.04 303.898 67.04C303.895 67.04 303.891 67.04 303.887 67.04C303.884 67.04 303.88 67.04 303.877 67.04C303.873 67.04 303.869 67.04 303.866 67.04C303.862 67.04 303.858 67.04 303.855 67.04C303.851 67.04 303.847 67.04 303.844 67.04C303.84 67.04 303.836 67.04 303.833 67.04C303.829 67.04 303.825 67.04 303.822 67.04C303.818 67.04 303.814 67.04 303.811 67.04C303.807 67.04 303.804 67.04 303.8 67.04C303.796 67.04 303.793 67.04 303.789 67.04C303.785 67.04 303.782 67.04 303.778 67.04C303.774 67.04 303.771 67.04 303.767 67.04C303.763 67.04 303.76 67.04 303.756 67.04C303.752 67.04 303.749 67.04 303.745 67.04C303.742 67.04 303.738 67.04 303.734 67.04C303.731 67.04 303.727 67.04 303.723 67.04C303.72 67.04 303.716 67.04 303.713 67.04C303.709 67.04 303.705 67.04 303.702 67.04C303.698 67.04 303.694 67.04 303.691 67.04C303.687 67.04 303.683 67.04 303.68 67.04C303.676 67.04 303.673 67.04 303.669 67.04C303.665 67.04 303.662 67.04 303.658 67.04C303.654 67.04 303.651 67.04 303.647 67.04C303.643 67.04 303.64 67.04 303.636 67.04C303.633 67.04 303.629 67.04 303.625 67.04C303.622 67.04 303.618 67.04 303.615 67.04C303.611 67.04 303.607 67.04 303.604 67.04C303.6 67.04 303.596 67.04 303.593 67.04C303.589 67.04 303.586 67.04 303.582 67.04C303.578 67.04 303.575 67.04 303.571 67.04C303.568 67.04 303.564 67.04 303.56 67.04C303.557 67.04 303.553 67.04 303.549 67.04C303.546 67.04 303.542 67.04 303.539 67.04C303.535 67.04 303.531 67.04 303.528 67.04C303.524 67.04 303.521 67.04 303.517 67.04C303.513 67.04 303.51 67.04 303.506 67.04C303.502 67.04 303.499 67.04 303.495 67.04C303.492 67.04 303.488 67.04 303.484 67.04C303.481 67.04 303.477 67.04 303.474 67.04C303.47 67.04 303.466 67.04 303.463 67.04C303.459 67.04 303.456 67.04 303.452 67.04C303.448 67.04 303.445 67.04 303.441 67.04C303.438 67.04 303.434 67.04 303.43 67.04C303.427 67.04 303.423 67.04 303.42 67.04C303.416 67.04 303.412 67.04 303.409 67.04C303.405 67.04 303.402 67.04 303.398 67.04C303.394 67.04 303.391 67.04 303.387 67.04C303.384 67.04 303.38 67.04 303.377 67.04C303.373 67.04 303.369 67.04 303.366 67.04C303.362 67.04 303.359 67.04 303.355 67.04C303.351 67.04 303.348 67.04 303.344 67.04C303.341 67.04 303.337 67.04 303.333 67.04C303.33 67.04 303.326 67.04 303.323 67.04C303.319 67.04 303.315 67.04 303.312 67.04C303.308 67.04 303.305 67.04 303.301 67.04C303.298 67.04 303.294 67.04 303.29 67.04C303.287 67.04 303.283 67.04 303.28 67.04C303.276 67.04 303.273 67.04 303.269 67.04C303.265 67.04 303.262 67.04 303.258 67.04C303.255 67.04 303.251 67.04 303.247 67.04C303.244 67.04 303.24 67.04 303.237 67.04C303.233 67.04 303.23 67.04 303.226 67.04C303.222 67.04 303.219 67.04 303.215 67.04C303.212 67.04 303.208 67.04 303.205 67.04C303.201 67.04 303.197 67.04 303.194 67.04C303.19 67.04 303.187 67.04 303.183 67.04C303.18 67.04 303.176 67.04 303.172 67.04C303.169 67.04 303.165 67.04 303.162 67.04C303.158 67.04 303.155 67.04 303.151 67.04C303.148 67.04 303.144 67.04 303.14 67.04C303.137 67.04 303.133 67.04 303.13 67.04C303.126 67.04 303.123 67.04 303.119 67.04C303.115 67.04 303.112 67.04 303.108 67.04C303.105 67.04 303.101 67.04 303.098 67.04C303.094 67.04 303.091 67.04 303.087 67.04C303.083 67.04 303.08 67.04 303.076 67.04C303.073 67.04 303.069 67.04 303.066 67.04C303.062 67.04 303.059 67.04 303.055 67.04C303.051 67.04 303.048 67.04 303.044 67.04C303.041 67.04 303.037 67.04 303.034 67.04C303.03 67.04 303.027 67.04 303.023 67.04C303.02 67.04 303.016 67.04 303.012 67.04C303.009 67.04 303.005 67.04 303.002 67.04C302.998 67.04 302.995 67.04 302.991 67.04C302.988 67.04 302.984 67.04 302.981 67.04C302.977 67.04 302.973 67.04 302.97 67.04C302.966 67.04 302.963 67.04 302.959 67.04C302.956 67.04 302.952 67.04 302.949 67.04C302.945 67.04 302.942 67.04 302.938 67.04C302.935 67.04 302.931 67.04 302.928 67.04C302.924 67.04 302.92 67.04 302.917 67.04C302.913 67.04 302.91 67.04 302.906 67.04C302.903 67.04 302.899 67.04 302.896 67.04C302.892 67.04 302.889 67.04 302.885 67.04C302.882 67.04 302.878 67.04 302.875 67.04C302.871 67.04 302.867 67.04 302.864 67.04C302.86 67.04 302.857 67.04 302.853 67.04C302.85 67.04 302.846 67.04 302.843 67.04C302.839 67.04 302.836 67.04 302.832 67.04C302.829 67.04 302.825 67.04 302.822 67.04C302.818 67.04 302.815 67.04 302.811 67.04C302.808 67.04 302.804 67.04 302.801 67.04C302.797 67.04 302.794 67.04 302.79 67.04C302.787 67.04 302.783 67.04 302.779 67.04C302.776 67.04 302.772 67.04 302.769 67.04C302.765 67.04 302.762 67.04 302.758 67.04C302.755 67.04 302.751 67.04 302.748 67.04C302.744 67.04 302.741 67.04 302.737 67.04C302.734 67.04 302.73 67.04 302.727 67.04C302.723 67.04 302.72 67.04 302.716 67.04C302.713 67.04 302.709 67.04 302.706 67.04C302.702 67.04 302.699 67.04 302.695 67.04C302.692 67.04 302.688 67.04 302.685 67.04C302.681 67.04 302.678 67.04 302.674 67.04C302.671 67.04 302.667 67.04 302.664 67.04C302.66 67.04 302.657 67.04 302.653 67.04C302.65 67.04 302.646 67.04 302.643 67.04C302.639 67.04 302.636 67.04 302.632 67.04C302.629 67.04 302.625 67.04 302.622 67.04C302.618 67.04 302.615 67.04 302.611 67.04C302.608 67.04 302.604 67.04 302.601 67.04C302.597 67.04 302.594 67.04 302.59 67.04C302.587 67.04 302.583 67.04 302.58 67.04C302.576 67.04 302.573 67.04 302.569 67.04C302.566 67.04 302.562 67.04 302.559 67.04C302.555 67.04 302.552 67.04 302.549 67.04C302.545 67.04 302.541 67.04 302.538 67.04C302.534 67.04 302.531 67.04 302.528 67.04C302.524 67.04 302.521 67.04 302.517 67.04C302.514 67.04 302.51 67.04 302.507 67.04C302.503 67.04 302.5 67.04 302.496 67.04C302.493 67.04 302.489 67.04 302.486 67.04C302.482 67.04 302.479 67.04 302.475 67.04C302.472 67.04 302.468 67.04 302.465 67.04C302.461 67.04 302.458 67.04 302.455 67.04C302.451 67.04 302.448 67.04 302.444 67.04C302.441 67.04 302.437 67.04 302.434 67.04C302.43 67.04 302.427 67.04 302.423 67.04C302.42 67.04 302.416 67.04 302.413 67.04C302.409 67.04 302.406 67.04 302.403 67.04C302.399 67.04 302.396 67.04 302.392 67.04C302.389 67.04 302.385 67.04 302.382 67.04C302.378 67.04 302.375 67.04 302.371 67.04C302.368 67.04 302.364 67.04 302.361 67.04C302.357 67.04 302.354 67.04 302.351 67.04C302.347 67.04 302.344 67.04 302.34 67.04C302.337 67.04 302.333 67.04 302.33 67.04C302.326 67.04 302.323 67.04 302.32 67.04C302.316 67.04 302.313 67.04 302.309 67.04C302.306 67.04 302.302 67.04 302.299 67.04C302.295 67.04 302.292 67.04 302.288 67.04C302.285 67.04 302.281 67.04 302.278 67.04C302.275 67.04 302.271 67.04 302.268 67.04C302.264 67.04 302.261 67.04 302.257 67.04C302.254 67.04 302.25 67.04 302.247 67.04C302.244 67.04 302.24 67.04 302.237 67.04C302.233 67.04 302.23 67.04 302.226 67.04C302.223 67.04 302.219 67.04 302.216 67.04C302.213 67.04 302.209 67.04 302.206 67.04C302.202 67.04 302.199 67.04 302.195 67.04C302.192 67.04 302.189 67.04 302.185 67.04C302.182 67.04 302.178 67.04 302.175 67.04C302.171 67.04 302.168 67.04 302.164 67.04C302.161 67.04 302.158 67.04 302.154 67.04C302.151 67.04 302.147 67.04 302.144 67.04C302.14 67.04 302.137 67.04 302.134 67.04C302.13 67.04 302.127 67.04 302.123 67.04C302.12 67.04 302.116 67.04 302.113 67.04C302.11 67.04 302.106 67.04 302.103 67.04C302.099 67.04 302.096 67.04 302.092 67.04C302.089 67.04 302.086 67.04 302.082 67.04C302.079 67.04 302.075 67.04 302.072 67.04C302.069 67.04 302.065 67.04 302.062 67.04C302.058 67.04 302.055 67.04 302.051 67.04C302.048 67.04 302.044 67.04 302.041 67.04C302.038 67.04 302.034 67.04 302.031 67.04C302.027 67.04 302.024 67.04 302.021 67.04C302.017 67.04 302.014 67.04 302.01 67.04C302.007 67.04 302.004 67.04 302 67.04C301.997 67.04 301.993 67.04 301.99 67.04C301.986 67.04 301.983 67.04 301.98 67.04C301.976 67.04 301.973 67.04 301.969 67.04C301.966 67.04 301.963 67.04 301.959 67.04C301.956 67.04 301.952 67.04 301.949 67.04C301.946 67.04 301.942 67.04 301.939 67.04C301.935 67.04 301.932 67.04 301.929 67.04C301.925 67.04 301.922 67.04 301.918 67.04C301.915 67.04 301.912 67.04 301.908 67.04C301.905 67.04 301.901 67.04 301.898 67.04C301.895 67.04 301.891 67.04 301.888 67.04C301.884 67.04 301.881 67.04 301.878 67.04C301.874 67.04 301.871 67.04 301.867 67.04C301.864 67.04 301.861 67.04 301.857 67.04C301.854 67.04 301.85 67.04 301.847 67.04C301.844 67.04 301.84 67.04 301.837 67.04C301.834 67.04 301.83 67.04 301.827 67.04C301.823 67.04 301.82 67.04 301.817 67.04C301.813 67.04 301.81 67.04 301.806 67.04C301.803 67.04 301.8 67.04 301.796 67.04C301.793 67.04 301.789 67.04 301.786 67.04C301.783 67.04 301.779 67.04 301.776 67.04C301.773 67.04 301.769 67.04 301.766 67.04C301.762 67.04 301.759 67.04 301.756 67.04C301.752 67.04 301.749 67.04 301.746 67.04C301.742 67.04 301.739 67.04 301.735 67.04C301.732 67.04 301.729 67.04 301.725 67.04C301.722 67.04 301.719 67.04 301.715 67.04C301.712 67.04 301.708 67.04 301.705 67.04C301.702 67.04 301.698 67.04 301.695 67.04C301.692 67.04 301.688 67.04 301.685 67.04C301.681 67.04 301.678 67.04 301.675 67.04C301.671 67.04 301.668 67.04 301.665 67.04C301.661 67.04 301.658 67.04 301.654 67.04C301.651 67.04 301.648 67.04 301.644 67.04C301.641 67.04 301.638 67.04 301.634 67.04C301.631 67.04 301.628 67.04 301.624 67.04C301.621 67.04 301.617 67.04 301.614 67.04C301.611 67.04 301.607 67.04 301.604 67.04C301.601 67.04 301.597 67.04 301.594 67.04C301.591 67.04 301.587 67.04 301.584 67.04C301.58 67.04 301.577 67.04 301.574 67.04C301.57 67.04 301.567 67.04 301.564 67.04C301.56 67.04 301.557 67.04 301.554 67.04C301.55 67.04 301.547 67.04 301.544 67.04C301.54 67.04 301.537 67.04 301.534 67.04C301.53 67.04 301.527 67.04 301.524 67.04C301.52 67.04 301.517 67.04 301.513 67.04C301.51 67.04 301.507 67.04 301.503 67.04C301.5 67.04 301.497 67.04 301.493 67.04C301.49 67.04 301.487 67.04 301.483 67.04C301.48 67.04 301.477 67.04 301.473 67.04C301.47 67.04 301.467 67.04 301.463 67.04C301.46 67.04 301.457 67.04 301.453 67.04C301.45 67.04 301.447 67.04 301.443 67.04C301.44 67.04 301.437 67.04 301.433 67.04C301.43 67.04 301.427 67.04 301.423 67.04C301.42 67.04 301.417 67.04 301.413 67.04C301.41 67.04 301.407 67.04 301.403 67.04C301.4 67.04 301.397 67.04 301.393 67.04C301.39 67.04 301.387 67.04 301.383 67.04C301.38 67.04 301.377 67.04 301.373 67.04C301.37 67.04 301.367 67.04 301.363 67.04C301.36 67.04 301.357 67.04 301.353 67.04C301.35 67.04 301.347 67.04 301.343 67.04C301.34 67.04 301.337 67.04 301.334 67.04C301.33 67.04 301.327 67.04 301.324 67.04C301.32 67.04 301.317 67.04 301.314 67.04C301.31 67.04 301.307 67.04 301.304 67.04C301.3 67.04 301.297 67.04 301.294 67.04C301.29 67.04 301.287 67.04 301.284 67.04C301.28 67.04 301.277 67.04 301.274 67.04C301.27 67.04 301.267 67.04 301.264 67.04C301.261 67.04 301.257 67.04 301.254 67.04C301.251 67.04 301.247 67.04 301.244 67.04C301.241 67.04 301.237 67.04 301.234 67.04C301.231 67.04 301.227 67.04 301.224 67.04C301.221 67.04 301.218 67.04 301.214 67.04C301.211 67.04 301.208 67.04 301.204 67.04C301.201 67.04 301.198 67.04 301.194 67.04C301.191 67.04 301.188 67.04 301.184 67.04C301.181 67.04 301.178 67.04 301.175 67.04C301.171 67.04 301.168 67.04 301.165 67.04C301.161 67.04 301.158 67.04 301.155 67.04C301.152 67.04 301.148 67.04 301.145 67.04C301.142 67.04 301.138 67.04 301.135 67.04C301.132 67.04 301.128 67.04 301.125 67.04C301.122 67.04 301.119 67.04 301.115 67.04C301.112 67.04 301.109 67.04 301.105 67.04C301.102 67.04 301.099 67.04 301.096 67.04C301.092 67.04 301.089 67.04 301.086 67.04C301.082 67.04 301.079 67.04 301.076 67.04C301.073 67.04 301.069 67.04 301.066 67.04C301.063 67.04 301.059 67.04 301.056 67.04C301.053 67.04 301.049 67.04 301.046 67.04C301.043 67.04 301.04 67.04 301.036 67.04C301.033 67.04 301.03 67.04 301.027 67.04C301.023 67.04 301.02 67.04 301.017 67.04C301.013 67.04 301.01 67.04 301.007 67.04C301.004 67.04 301 67.04 300.997 67.04C300.994 67.04 300.991 67.04 300.987 67.04C300.984 67.04 300.981 67.04 300.977 67.04C300.974 67.04 300.971 67.04 300.968 67.04C300.964 67.04 300.961 67.04 300.958 67.04C300.955 67.04 300.951 67.04 300.948 67.04C300.945 67.04 300.941 67.04 300.938 67.04C300.935 67.04 300.932 67.04 300.928 67.04C300.925 67.04 300.922 67.04 300.919 67.04C300.915 67.04 300.912 67.04 300.909 67.04C300.906 67.04 300.902 67.04 300.899 67.04C300.896 67.04 300.893 67.04 300.889 67.04C300.886 67.04 300.883 67.04 300.879 67.04C300.876 67.04 300.873 67.04 300.87 67.04C300.867 67.04 300.863 67.04 300.86 67.04C300.857 67.04 300.853 67.04 300.85 67.04C300.847 67.04 300.844 67.04 300.84 67.04C300.837 67.04 300.834 67.04 300.831 67.04C300.827 67.04 300.824 67.04 300.821 67.04C300.818 67.04 300.814 67.04 300.811 67.04C300.808 67.04 300.805 67.04 300.801 67.04C300.798 67.04 300.795 67.04 300.792 67.04C300.788 67.04 300.785 67.04 300.782 67.04C300.779 67.04 300.775 67.04 300.772 67.04C300.769 67.04 300.766 67.04 300.762 67.04C300.759 67.04 300.756 67.04 300.753 67.04C300.75 67.04 300.746 67.04 300.743 67.04C300.74 67.04 300.736 67.04 300.733 67.04C300.73 67.04 300.727 67.04 300.724 67.04C300.72 67.04 300.717 67.04 300.714 67.04C300.711 67.04 300.707 67.04 300.704 67.04C300.701 67.04 300.698 67.04 300.695 67.04C300.691 67.04 300.688 67.04 300.685 67.04C300.682 67.04 300.678 67.04 300.675 67.04C300.672 67.04 300.669 67.04 300.665 67.04C300.662 67.04 300.659 67.04 300.656 67.04C300.653 67.04 300.649 67.04 300.646 67.04C300.643 67.04 300.64 67.04 300.636 67.04C300.633 67.04 300.63 67.04 300.627 67.04C300.623 67.04 300.62 67.04 300.617 67.04C300.614 67.04 300.611 67.04 300.607 67.04C300.604 67.04 300.601 67.04 300.598 67.04C300.595 67.04 300.591 67.04 300.588 67.04C300.585 67.04 300.582 67.04 300.578 67.04C300.575 67.04 300.572 67.04 300.569 67.04C300.566 67.04 300.562 67.04 300.559 67.04C300.556 67.04 300.553 67.04 300.549 67.04C300.546 67.04 300.543 67.04 300.54 67.04C300.537 67.04 300.533 67.04 300.53 67.04C300.527 67.04 300.524 67.04 300.521 67.04C300.517 67.04 300.514 67.04 300.511 67.04C300.508 67.04 300.505 67.04 300.501 67.04C300.498 67.04 300.495 67.04 300.492 67.04C300.489 67.04 300.485 67.04 300.482 67.04C300.479 67.04 300.476 67.04 300.473 67.04C300.469 67.04 300.466 67.04 300.463 67.04C300.46 67.04 300.457 67.04 300.453 67.04C300.45 67.04 300.447 67.04 300.444 67.04C300.441 67.04 300.437 67.04 300.434 67.04C300.431 67.04 300.428 67.04 300.425 67.04C300.421 67.04 300.418 67.04 300.415 67.04C300.412 67.04 300.409 67.04 300.405 67.04C300.402 67.04 300.399 67.04 300.396 67.04C300.393 67.04 300.389 67.04 300.386 67.04C300.383 67.04 300.38 67.04 300.377 67.04C300.374 67.04 300.37 67.04 300.367 67.04C300.364 67.04 300.361 67.04 300.358 67.04C300.354 67.04 300.351 67.04 300.348 67.04C300.345 67.04 300.342 67.04 300.339 67.04C300.335 67.04 300.332 67.04 300.329 67.04C300.326 67.04 300.323 67.04 300.32 67.04C300.316 67.04 300.313 67.04 300.31 67.04C300.307 67.04 300.304 67.04 300.3 67.04C300.297 67.04 300.294 67.04 300.291 67.04C300.288 67.04 300.284 67.04 300.281 67.04C300.278 67.04 300.275 67.04 300.272 67.04C300.269 67.04 300.265 67.04 300.262 67.04C300.259 67.04 300.256 67.04 300.253 67.04C300.25 67.04 300.247 67.04 300.243 67.04C300.24 67.04 300.237 67.04 300.234 67.04C300.231 67.04 300.227 67.04 300.224 67.04C300.221 67.04 300.218 67.04 300.215 67.04C300.212 67.04 300.208 67.04 300.205 67.04C300.202 67.04 300.199 67.04 300.196 67.04C300.193 67.04 300.189 67.04 300.186 67.04C300.183 67.04 300.18 67.04 300.177 67.04C300.174 67.04 300.171 67.04 300.167 67.04C300.164 67.04 300.161 67.04 300.158 67.04C300.155 67.04 300.152 67.04 300.148 67.04C300.145 67.04 300.142 67.04 300.139 67.04C300.136 67.04 300.133 67.04 300.13 67.04C300.126 67.04 300.123 67.04 300.12 67.04C300.117 67.04 300.114 67.04 300.111 67.04C300.107 67.04 300.104 67.04 300.101 67.04C300.098 67.04 300.095 67.04 300.092 67.04C300.089 67.04 300.085 67.04 300.082 67.04C300.079 67.04 300.076 67.04 300.073 67.04C300.07 67.04 300.067 67.04 300.064 67.04C300.06 67.04 300.057 67.04 300.054 67.04C300.051 67.04 300.048 67.04 300.045 67.04C300.042 67.04 300.038 67.04 300.035 67.04C300.032 67.04 300.029 67.04 300.026 67.04C300.023 67.04 300.02 67.04 300.016 67.04C300.013 67.04 300.01 67.04 300.007 67.04C300.004 67.04 300.001 67.04 299.998 67.04C299.994 67.04 299.991 67.04 299.988 67.04C299.985 67.04 299.982 67.04 299.979 67.04C299.976 67.04 299.973 67.04 299.969 67.04C299.966 67.04 299.963 67.04 299.96 67.04C299.957 67.04 299.954 67.04 299.951 67.04C299.948 67.04 299.944 67.04 299.941 67.04C299.938 67.04 299.935 67.04 299.932 67.04C299.929 67.04 299.926 67.04 299.923 67.04C299.919 67.04 299.916 67.04 299.913 67.04C299.91 67.04 299.907 67.04 299.904 67.04C299.901 67.04 299.898 67.04 299.894 67.04C299.891 67.04 299.888 67.04 299.885 67.04C299.882 67.04 299.879 67.04 299.876 67.04C299.873 67.04 299.87 67.04 299.867 67.04C299.863 67.04 299.86 67.04 299.857 67.04C299.854 67.04 299.851 67.04 299.848 67.04C299.845 67.04 299.842 67.04 299.838 67.04C299.835 67.04 299.832 67.04 299.829 67.04C299.826 67.04 299.823 67.04 299.82 67.04C299.817 67.04 299.814 67.04 299.81 67.04C299.807 67.04 299.804 67.04 299.801 67.04C299.798 67.04 299.795 67.04 299.792 67.04C299.789 67.04 299.786 67.04 299.783 67.04C299.779 67.04 299.776 67.04 299.773 67.04C299.77 67.04 299.767 67.04 299.764 67.04C299.761 67.04 299.758 67.04 299.755 67.04C299.752 67.04 299.748 67.04 299.745 67.04C299.742 67.04 299.739 67.04 299.736 67.04C299.733 67.04 299.73 67.04 299.727 67.04C299.724 67.04 299.721 67.04 299.718 67.04C299.715 67.04 299.711 67.04 299.708 67.04C299.705 67.04 299.702 67.04 299.699 67.04C299.696 67.04 299.693 67.04 299.69 67.04C299.687 67.04 299.684 67.04 299.68 67.04C299.677 67.04 299.674 67.04 299.671 67.04C299.668 67.04 299.665 67.04 299.662 67.04C299.659 67.04 299.656 67.04 299.653 67.04C299.65 67.04 299.647 67.04 299.643 67.04C299.64 67.04 299.637 67.04 299.634 67.04C299.631 67.04 299.628 67.04 299.625 67.04C299.622 67.04 299.619 67.04 299.616 67.04C299.613 67.04 299.61 67.04 299.607 67.04C299.604 67.04 299.601 67.04 299.597 67.04C299.594 67.04 299.591 67.04 299.588 67.04C299.585 67.04 299.582 67.04 299.579 67.04C299.576 67.04 299.573 67.04 299.57 67.04C299.567 67.04 299.564 67.04 299.561 67.04C299.557 67.04 299.554 67.04 299.551 67.04C299.548 67.04 299.545 67.04 299.542 67.04C299.539 67.04 299.536 67.04 299.533 67.04C299.53 67.04 299.527 67.04 299.524 67.04C299.521 67.04 299.518 67.04 299.515 67.04C299.512 67.04 299.508 67.04 299.505 67.04C299.502 67.04 299.499 67.04 299.496 67.04C299.493 67.04 299.49 67.04 299.487 67.04C299.484 67.04 299.481 67.04 299.478 67.04C299.475 67.04 299.472 67.04 299.469 67.04C299.466 67.04 299.463 67.04 299.46 67.04C299.456 67.04 299.453 67.04 299.45 67.04C299.447 67.04 299.444 67.04 299.441 67.04C299.438 67.04 299.435 67.04 299.432 67.04C299.429 67.04 299.426 67.04 299.423 67.04V68.04V69.04C299.426 69.04 299.429 69.04 299.432 69.04C299.435 69.04 299.438 69.04 299.441 69.04C299.444 69.04 299.447 69.04 299.45 69.04C299.453 69.04 299.456 69.04 299.46 69.04C299.463 69.04 299.466 69.04 299.469 69.04C299.472 69.04 299.475 69.04 299.478 69.04C299.481 69.04 299.484 69.04 299.487 69.04C299.49 69.04 299.493 69.04 299.496 69.04C299.499 69.04 299.502 69.04 299.505 69.04C299.508 69.04 299.512 69.04 299.515 69.04C299.518 69.04 299.521 69.04 299.524 69.04C299.527 69.04 299.53 69.04 299.533 69.04C299.536 69.04 299.539 69.04 299.542 69.04C299.545 69.04 299.548 69.04 299.551 69.04C299.554 69.04 299.557 69.04 299.561 69.04C299.564 69.04 299.567 69.04 299.57 69.04C299.573 69.04 299.576 69.04 299.579 69.04C299.582 69.04 299.585 69.04 299.588 69.04C299.591 69.04 299.594 69.04 299.597 69.04C299.601 69.04 299.604 69.04 299.607 69.04C299.61 69.04 299.613 69.04 299.616 69.04C299.619 69.04 299.622 69.04 299.625 69.04C299.628 69.04 299.631 69.04 299.634 69.04C299.637 69.04 299.64 69.04 299.643 69.04C299.647 69.04 299.65 69.04 299.653 69.04C299.656 69.04 299.659 69.04 299.662 69.04C299.665 69.04 299.668 69.04 299.671 69.04C299.674 69.04 299.677 69.04 299.68 69.04C299.684 69.04 299.687 69.04 299.69 69.04C299.693 69.04 299.696 69.04 299.699 69.04C299.702 69.04 299.705 69.04 299.708 69.04C299.711 69.04 299.715 69.04 299.718 69.04C299.721 69.04 299.724 69.04 299.727 69.04C299.73 69.04 299.733 69.04 299.736 69.04C299.739 69.04 299.742 69.04 299.745 69.04C299.748 69.04 299.752 69.04 299.755 69.04C299.758 69.04 299.761 69.04 299.764 69.04C299.767 69.04 299.77 69.04 299.773 69.04C299.776 69.04 299.779 69.04 299.783 69.04C299.786 69.04 299.789 69.04 299.792 69.04C299.795 69.04 299.798 69.04 299.801 69.04C299.804 69.04 299.807 69.04 299.81 69.04C299.814 69.04 299.817 69.04 299.82 69.04C299.823 69.04 299.826 69.04 299.829 69.04C299.832 69.04 299.835 69.04 299.838 69.04C299.842 69.04 299.845 69.04 299.848 69.04C299.851 69.04 299.854 69.04 299.857 69.04C299.86 69.04 299.863 69.04 299.867 69.04C299.87 69.04 299.873 69.04 299.876 69.04C299.879 69.04 299.882 69.04 299.885 69.04C299.888 69.04 299.891 69.04 299.894 69.04C299.898 69.04 299.901 69.04 299.904 69.04C299.907 69.04 299.91 69.04 299.913 69.04C299.916 69.04 299.919 69.04 299.923 69.04C299.926 69.04 299.929 69.04 299.932 69.04C299.935 69.04 299.938 69.04 299.941 69.04C299.944 69.04 299.948 69.04 299.951 69.04C299.954 69.04 299.957 69.04 299.96 69.04C299.963 69.04 299.966 69.04 299.969 69.04C299.973 69.04 299.976 69.04 299.979 69.04C299.982 69.04 299.985 69.04 299.988 69.04C299.991 69.04 299.994 69.04 299.998 69.04C300.001 69.04 300.004 69.04 300.007 69.04C300.01 69.04 300.013 69.04 300.016 69.04C300.02 69.04 300.023 69.04 300.026 69.04C300.029 69.04 300.032 69.04 300.035 69.04C300.038 69.04 300.042 69.04 300.045 69.04C300.048 69.04 300.051 69.04 300.054 69.04C300.057 69.04 300.06 69.04 300.064 69.04C300.067 69.04 300.07 69.04 300.073 69.04C300.076 69.04 300.079 69.04 300.082 69.04C300.085 69.04 300.089 69.04 300.092 69.04C300.095 69.04 300.098 69.04 300.101 69.04C300.104 69.04 300.107 69.04 300.111 69.04C300.114 69.04 300.117 69.04 300.12 69.04C300.123 69.04 300.126 69.04 300.13 69.04C300.133 69.04 300.136 69.04 300.139 69.04C300.142 69.04 300.145 69.04 300.148 69.04C300.152 69.04 300.155 69.04 300.158 69.04C300.161 69.04 300.164 69.04 300.167 69.04C300.171 69.04 300.174 69.04 300.177 69.04C300.18 69.04 300.183 69.04 300.186 69.04C300.189 69.04 300.193 69.04 300.196 69.04C300.199 69.04 300.202 69.04 300.205 69.04C300.208 69.04 300.212 69.04 300.215 69.04C300.218 69.04 300.221 69.04 300.224 69.04C300.227 69.04 300.231 69.04 300.234 69.04C300.237 69.04 300.24 69.04 300.243 69.04C300.247 69.04 300.25 69.04 300.253 69.04C300.256 69.04 300.259 69.04 300.262 69.04C300.265 69.04 300.269 69.04 300.272 69.04C300.275 69.04 300.278 69.04 300.281 69.04C300.284 69.04 300.288 69.04 300.291 69.04C300.294 69.04 300.297 69.04 300.3 69.04C300.304 69.04 300.307 69.04 300.31 69.04C300.313 69.04 300.316 69.04 300.32 69.04C300.323 69.04 300.326 69.04 300.329 69.04C300.332 69.04 300.335 69.04 300.339 69.04C300.342 69.04 300.345 69.04 300.348 69.04C300.351 69.04 300.354 69.04 300.358 69.04C300.361 69.04 300.364 69.04 300.367 69.04C300.37 69.04 300.374 69.04 300.377 69.04C300.38 69.04 300.383 69.04 300.386 69.04C300.389 69.04 300.393 69.04 300.396 69.04C300.399 69.04 300.402 69.04 300.405 69.04C300.409 69.04 300.412 69.04 300.415 69.04C300.418 69.04 300.421 69.04 300.425 69.04C300.428 69.04 300.431 69.04 300.434 69.04C300.437 69.04 300.441 69.04 300.444 69.04C300.447 69.04 300.45 69.04 300.453 69.04C300.457 69.04 300.46 69.04 300.463 69.04C300.466 69.04 300.469 69.04 300.473 69.04C300.476 69.04 300.479 69.04 300.482 69.04C300.485 69.04 300.489 69.04 300.492 69.04C300.495 69.04 300.498 69.04 300.501 69.04C300.505 69.04 300.508 69.04 300.511 69.04C300.514 69.04 300.517 69.04 300.521 69.04C300.524 69.04 300.527 69.04 300.53 69.04C300.533 69.04 300.537 69.04 300.54 69.04C300.543 69.04 300.546 69.04 300.549 69.04C300.553 69.04 300.556 69.04 300.559 69.04C300.562 69.04 300.566 69.04 300.569 69.04C300.572 69.04 300.575 69.04 300.578 69.04C300.582 69.04 300.585 69.04 300.588 69.04C300.591 69.04 300.595 69.04 300.598 69.04C300.601 69.04 300.604 69.04 300.607 69.04C300.611 69.04 300.614 69.04 300.617 69.04C300.62 69.04 300.623 69.04 300.627 69.04C300.63 69.04 300.633 69.04 300.636 69.04C300.64 69.04 300.643 69.04 300.646 69.04C300.649 69.04 300.653 69.04 300.656 69.04C300.659 69.04 300.662 69.04 300.665 69.04C300.669 69.04 300.672 69.04 300.675 69.04C300.678 69.04 300.682 69.04 300.685 69.04C300.688 69.04 300.691 69.04 300.695 69.04C300.698 69.04 300.701 69.04 300.704 69.04C300.707 69.04 300.711 69.04 300.714 69.04C300.717 69.04 300.72 69.04 300.724 69.04C300.727 69.04 300.73 69.04 300.733 69.04C300.736 69.04 300.74 69.04 300.743 69.04C300.746 69.04 300.75 69.04 300.753 69.04C300.756 69.04 300.759 69.04 300.762 69.04C300.766 69.04 300.769 69.04 300.772 69.04C300.775 69.04 300.779 69.04 300.782 69.04C300.785 69.04 300.788 69.04 300.792 69.04C300.795 69.04 300.798 69.04 300.801 69.04C300.805 69.04 300.808 69.04 300.811 69.04C300.814 69.04 300.818 69.04 300.821 69.04C300.824 69.04 300.827 69.04 300.831 69.04C300.834 69.04 300.837 69.04 300.84 69.04C300.844 69.04 300.847 69.04 300.85 69.04C300.853 69.04 300.857 69.04 300.86 69.04C300.863 69.04 300.867 69.04 300.87 69.04C300.873 69.04 300.876 69.04 300.879 69.04C300.883 69.04 300.886 69.04 300.889 69.04C300.893 69.04 300.896 69.04 300.899 69.04C300.902 69.04 300.906 69.04 300.909 69.04C300.912 69.04 300.915 69.04 300.919 69.04C300.922 69.04 300.925 69.04 300.928 69.04C300.932 69.04 300.935 69.04 300.938 69.04C300.941 69.04 300.945 69.04 300.948 69.04C300.951 69.04 300.955 69.04 300.958 69.04C300.961 69.04 300.964 69.04 300.968 69.04C300.971 69.04 300.974 69.04 300.977 69.04C300.981 69.04 300.984 69.04 300.987 69.04C300.991 69.04 300.994 69.04 300.997 69.04C301 69.04 301.004 69.04 301.007 69.04C301.01 69.04 301.013 69.04 301.017 69.04C301.02 69.04 301.023 69.04 301.027 69.04C301.03 69.04 301.033 69.04 301.036 69.04C301.04 69.04 301.043 69.04 301.046 69.04C301.049 69.04 301.053 69.04 301.056 69.04C301.059 69.04 301.063 69.04 301.066 69.04C301.069 69.04 301.073 69.04 301.076 69.04C301.079 69.04 301.082 69.04 301.086 69.04C301.089 69.04 301.092 69.04 301.096 69.04C301.099 69.04 301.102 69.04 301.105 69.04C301.109 69.04 301.112 69.04 301.115 69.04C301.119 69.04 301.122 69.04 301.125 69.04C301.128 69.04 301.132 69.04 301.135 69.04C301.138 69.04 301.142 69.04 301.145 69.04C301.148 69.04 301.152 69.04 301.155 69.04C301.158 69.04 301.161 69.04 301.165 69.04C301.168 69.04 301.171 69.04 301.175 69.04C301.178 69.04 301.181 69.04 301.184 69.04C301.188 69.04 301.191 69.04 301.194 69.04C301.198 69.04 301.201 69.04 301.204 69.04C301.208 69.04 301.211 69.04 301.214 69.04C301.218 69.04 301.221 69.04 301.224 69.04C301.227 69.04 301.231 69.04 301.234 69.04C301.237 69.04 301.241 69.04 301.244 69.04C301.247 69.04 301.251 69.04 301.254 69.04C301.257 69.04 301.261 69.04 301.264 69.04C301.267 69.04 301.27 69.04 301.274 69.04C301.277 69.04 301.28 69.04 301.284 69.04C301.287 69.04 301.29 69.04 301.294 69.04C301.297 69.04 301.3 69.04 301.304 69.04C301.307 69.04 301.31 69.04 301.314 69.04C301.317 69.04 301.32 69.04 301.324 69.04C301.327 69.04 301.33 69.04 301.334 69.04C301.337 69.04 301.34 69.04 301.343 69.04C301.347 69.04 301.35 69.04 301.353 69.04C301.357 69.04 301.36 69.04 301.363 69.04C301.367 69.04 301.37 69.04 301.373 69.04C301.377 69.04 301.38 69.04 301.383 69.04C301.387 69.04 301.39 69.04 301.393 69.04C301.397 69.04 301.4 69.04 301.403 69.04C301.407 69.04 301.41 69.04 301.413 69.04C301.417 69.04 301.42 69.04 301.423 69.04C301.427 69.04 301.43 69.04 301.433 69.04C301.437 69.04 301.44 69.04 301.443 69.04C301.447 69.04 301.45 69.04 301.453 69.04C301.457 69.04 301.46 69.04 301.463 69.04C301.467 69.04 301.47 69.04 301.473 69.04C301.477 69.04 301.48 69.04 301.483 69.04C301.487 69.04 301.49 69.04 301.493 69.04C301.497 69.04 301.5 69.04 301.503 69.04C301.507 69.04 301.51 69.04 301.513 69.04C301.517 69.04 301.52 69.04 301.524 69.04C301.527 69.04 301.53 69.04 301.534 69.04C301.537 69.04 301.54 69.04 301.544 69.04C301.547 69.04 301.55 69.04 301.554 69.04C301.557 69.04 301.56 69.04 301.564 69.04C301.567 69.04 301.57 69.04 301.574 69.04C301.577 69.04 301.58 69.04 301.584 69.04C301.587 69.04 301.591 69.04 301.594 69.04C301.597 69.04 301.601 69.04 301.604 69.04C301.607 69.04 301.611 69.04 301.614 69.04C301.617 69.04 301.621 69.04 301.624 69.04C301.628 69.04 301.631 69.04 301.634 69.04C301.638 69.04 301.641 69.04 301.644 69.04C301.648 69.04 301.651 69.04 301.654 69.04C301.658 69.04 301.661 69.04 301.665 69.04C301.668 69.04 301.671 69.04 301.675 69.04C301.678 69.04 301.681 69.04 301.685 69.04C301.688 69.04 301.692 69.04 301.695 69.04C301.698 69.04 301.702 69.04 301.705 69.04C301.708 69.04 301.712 69.04 301.715 69.04C301.719 69.04 301.722 69.04 301.725 69.04C301.729 69.04 301.732 69.04 301.735 69.04C301.739 69.04 301.742 69.04 301.746 69.04C301.749 69.04 301.752 69.04 301.756 69.04C301.759 69.04 301.762 69.04 301.766 69.04C301.769 69.04 301.773 69.04 301.776 69.04C301.779 69.04 301.783 69.04 301.786 69.04C301.789 69.04 301.793 69.04 301.796 69.04C301.8 69.04 301.803 69.04 301.806 69.04C301.81 69.04 301.813 69.04 301.817 69.04C301.82 69.04 301.823 69.04 301.827 69.04C301.83 69.04 301.834 69.04 301.837 69.04C301.84 69.04 301.844 69.04 301.847 69.04C301.85 69.04 301.854 69.04 301.857 69.04C301.861 69.04 301.864 69.04 301.867 69.04C301.871 69.04 301.874 69.04 301.878 69.04C301.881 69.04 301.884 69.04 301.888 69.04C301.891 69.04 301.895 69.04 301.898 69.04C301.901 69.04 301.905 69.04 301.908 69.04C301.912 69.04 301.915 69.04 301.918 69.04C301.922 69.04 301.925 69.04 301.929 69.04C301.932 69.04 301.935 69.04 301.939 69.04C301.942 69.04 301.946 69.04 301.949 69.04C301.952 69.04 301.956 69.04 301.959 69.04C301.963 69.04 301.966 69.04 301.969 69.04C301.973 69.04 301.976 69.04 301.98 69.04C301.983 69.04 301.986 69.04 301.99 69.04C301.993 69.04 301.997 69.04 302 69.04C302.004 69.04 302.007 69.04 302.01 69.04C302.014 69.04 302.017 69.04 302.021 69.04C302.024 69.04 302.027 69.04 302.031 69.04C302.034 69.04 302.038 69.04 302.041 69.04C302.044 69.04 302.048 69.04 302.051 69.04C302.055 69.04 302.058 69.04 302.062 69.04C302.065 69.04 302.069 69.04 302.072 69.04C302.075 69.04 302.079 69.04 302.082 69.04C302.086 69.04 302.089 69.04 302.092 69.04C302.096 69.04 302.099 69.04 302.103 69.04C302.106 69.04 302.11 69.04 302.113 69.04C302.116 69.04 302.12 69.04 302.123 69.04C302.127 69.04 302.13 69.04 302.134 69.04C302.137 69.04 302.14 69.04 302.144 69.04C302.147 69.04 302.151 69.04 302.154 69.04C302.158 69.04 302.161 69.04 302.164 69.04C302.168 69.04 302.171 69.04 302.175 69.04C302.178 69.04 302.182 69.04 302.185 69.04C302.189 69.04 302.192 69.04 302.195 69.04C302.199 69.04 302.202 69.04 302.206 69.04C302.209 69.04 302.213 69.04 302.216 69.04C302.219 69.04 302.223 69.04 302.226 69.04C302.23 69.04 302.233 69.04 302.237 69.04C302.24 69.04 302.244 69.04 302.247 69.04C302.25 69.04 302.254 69.04 302.257 69.04C302.261 69.04 302.264 69.04 302.268 69.04C302.271 69.04 302.275 69.04 302.278 69.04C302.281 69.04 302.285 69.04 302.288 69.04C302.292 69.04 302.295 69.04 302.299 69.04C302.302 69.04 302.306 69.04 302.309 69.04C302.313 69.04 302.316 69.04 302.32 69.04C302.323 69.04 302.326 69.04 302.33 69.04C302.333 69.04 302.337 69.04 302.34 69.04C302.344 69.04 302.347 69.04 302.351 69.04C302.354 69.04 302.357 69.04 302.361 69.04C302.364 69.04 302.368 69.04 302.371 69.04C302.375 69.04 302.378 69.04 302.382 69.04C302.385 69.04 302.389 69.04 302.392 69.04C302.396 69.04 302.399 69.04 302.403 69.04C302.406 69.04 302.409 69.04 302.413 69.04C302.416 69.04 302.42 69.04 302.423 69.04C302.427 69.04 302.43 69.04 302.434 69.04C302.437 69.04 302.441 69.04 302.444 69.04C302.448 69.04 302.451 69.04 302.455 69.04C302.458 69.04 302.461 69.04 302.465 69.04C302.468 69.04 302.472 69.04 302.475 69.04C302.479 69.04 302.482 69.04 302.486 69.04C302.489 69.04 302.493 69.04 302.496 69.04C302.5 69.04 302.503 69.04 302.507 69.04C302.51 69.04 302.514 69.04 302.517 69.04C302.521 69.04 302.524 69.04 302.528 69.04C302.531 69.04 302.534 69.04 302.538 69.04C302.541 69.04 302.545 69.04 302.549 69.04C302.552 69.04 302.555 69.04 302.559 69.04C302.562 69.04 302.566 69.04 302.569 69.04C302.573 69.04 302.576 69.04 302.58 69.04C302.583 69.04 302.587 69.04 302.59 69.04C302.594 69.04 302.597 69.04 302.601 69.04C302.604 69.04 302.608 69.04 302.611 69.04C302.615 69.04 302.618 69.04 302.622 69.04C302.625 69.04 302.629 69.04 302.632 69.04C302.636 69.04 302.639 69.04 302.643 69.04C302.646 69.04 302.65 69.04 302.653 69.04C302.657 69.04 302.66 69.04 302.664 69.04C302.667 69.04 302.671 69.04 302.674 69.04C302.678 69.04 302.681 69.04 302.685 69.04C302.688 69.04 302.692 69.04 302.695 69.04C302.699 69.04 302.702 69.04 302.706 69.04C302.709 69.04 302.713 69.04 302.716 69.04C302.72 69.04 302.723 69.04 302.727 69.04C302.73 69.04 302.734 69.04 302.737 69.04C302.741 69.04 302.744 69.04 302.748 69.04C302.751 69.04 302.755 69.04 302.758 69.04C302.762 69.04 302.765 69.04 302.769 69.04C302.772 69.04 302.776 69.04 302.779 69.04C302.783 69.04 302.787 69.04 302.79 69.04C302.794 69.04 302.797 69.04 302.801 69.04C302.804 69.04 302.808 69.04 302.811 69.04C302.815 69.04 302.818 69.04 302.822 69.04C302.825 69.04 302.829 69.04 302.832 69.04C302.836 69.04 302.839 69.04 302.843 69.04C302.846 69.04 302.85 69.04 302.853 69.04C302.857 69.04 302.86 69.04 302.864 69.04C302.867 69.04 302.871 69.04 302.875 69.04C302.878 69.04 302.882 69.04 302.885 69.04C302.889 69.04 302.892 69.04 302.896 69.04C302.899 69.04 302.903 69.04 302.906 69.04C302.91 69.04 302.913 69.04 302.917 69.04C302.92 69.04 302.924 69.04 302.928 69.04C302.931 69.04 302.935 69.04 302.938 69.04C302.942 69.04 302.945 69.04 302.949 69.04C302.952 69.04 302.956 69.04 302.959 69.04C302.963 69.04 302.966 69.04 302.97 69.04C302.973 69.04 302.977 69.04 302.981 69.04C302.984 69.04 302.988 69.04 302.991 69.04C302.995 69.04 302.998 69.04 303.002 69.04C303.005 69.04 303.009 69.04 303.012 69.04C303.016 69.04 303.02 69.04 303.023 69.04C303.027 69.04 303.03 69.04 303.034 69.04C303.037 69.04 303.041 69.04 303.044 69.04C303.048 69.04 303.051 69.04 303.055 69.04C303.059 69.04 303.062 69.04 303.066 69.04C303.069 69.04 303.073 69.04 303.076 69.04C303.08 69.04 303.083 69.04 303.087 69.04C303.091 69.04 303.094 69.04 303.098 69.04C303.101 69.04 303.105 69.04 303.108 69.04C303.112 69.04 303.115 69.04 303.119 69.04C303.123 69.04 303.126 69.04 303.13 69.04C303.133 69.04 303.137 69.04 303.14 69.04C303.144 69.04 303.148 69.04 303.151 69.04C303.155 69.04 303.158 69.04 303.162 69.04C303.165 69.04 303.169 69.04 303.172 69.04C303.176 69.04 303.18 69.04 303.183 69.04C303.187 69.04 303.19 69.04 303.194 69.04C303.197 69.04 303.201 69.04 303.205 69.04C303.208 69.04 303.212 69.04 303.215 69.04C303.219 69.04 303.222 69.04 303.226 69.04C303.23 69.04 303.233 69.04 303.237 69.04C303.24 69.04 303.244 69.04 303.247 69.04C303.251 69.04 303.255 69.04 303.258 69.04C303.262 69.04 303.265 69.04 303.269 69.04C303.273 69.04 303.276 69.04 303.28 69.04C303.283 69.04 303.287 69.04 303.29 69.04C303.294 69.04 303.298 69.04 303.301 69.04C303.305 69.04 303.308 69.04 303.312 69.04C303.315 69.04 303.319 69.04 303.323 69.04C303.326 69.04 303.33 69.04 303.333 69.04C303.337 69.04 303.341 69.04 303.344 69.04C303.348 69.04 303.351 69.04 303.355 69.04C303.359 69.04 303.362 69.04 303.366 69.04C303.369 69.04 303.373 69.04 303.377 69.04C303.38 69.04 303.384 69.04 303.387 69.04C303.391 69.04 303.394 69.04 303.398 69.04C303.402 69.04 303.405 69.04 303.409 69.04C303.412 69.04 303.416 69.04 303.42 69.04C303.423 69.04 303.427 69.04 303.43 69.04C303.434 69.04 303.438 69.04 303.441 69.04C303.445 69.04 303.448 69.04 303.452 69.04C303.456 69.04 303.459 69.04 303.463 69.04C303.466 69.04 303.47 69.04 303.474 69.04C303.477 69.04 303.481 69.04 303.484 69.04C303.488 69.04 303.492 69.04 303.495 69.04C303.499 69.04 303.502 69.04 303.506 69.04C303.51 69.04 303.513 69.04 303.517 69.04C303.521 69.04 303.524 69.04 303.528 69.04C303.531 69.04 303.535 69.04 303.539 69.04C303.542 69.04 303.546 69.04 303.549 69.04C303.553 69.04 303.557 69.04 303.56 69.04C303.564 69.04 303.568 69.04 303.571 69.04C303.575 69.04 303.578 69.04 303.582 69.04C303.586 69.04 303.589 69.04 303.593 69.04C303.596 69.04 303.6 69.04 303.604 69.04C303.607 69.04 303.611 69.04 303.615 69.04C303.618 69.04 303.622 69.04 303.625 69.04C303.629 69.04 303.633 69.04 303.636 69.04C303.64 69.04 303.643 69.04 303.647 69.04C303.651 69.04 303.654 69.04 303.658 69.04C303.662 69.04 303.665 69.04 303.669 69.04C303.673 69.04 303.676 69.04 303.68 69.04C303.683 69.04 303.687 69.04 303.691 69.04C303.694 69.04 303.698 69.04 303.702 69.04C303.705 69.04 303.709 69.04 303.713 69.04C303.716 69.04 303.72 69.04 303.723 69.04C303.727 69.04 303.731 69.04 303.734 69.04C303.738 69.04 303.742 69.04 303.745 69.04C303.749 69.04 303.752 69.04 303.756 69.04C303.76 69.04 303.763 69.04 303.767 69.04C303.771 69.04 303.774 69.04 303.778 69.04C303.782 69.04 303.785 69.04 303.789 69.04C303.793 69.04 303.796 69.04 303.8 69.04C303.804 69.04 303.807 69.04 303.811 69.04C303.814 69.04 303.818 69.04 303.822 69.04C303.825 69.04 303.829 69.04 303.833 69.04C303.836 69.04 303.84 69.04 303.844 69.04C303.847 69.04 303.851 69.04 303.855 69.04C303.858 69.04 303.862 69.04 303.866 69.04C303.869 69.04 303.873 69.04 303.877 69.04C303.88 69.04 303.884 69.04 303.887 69.04C303.891 69.04 303.895 69.04 303.898 69.04C303.902 69.04 303.906 69.04 303.909 69.04C303.913 69.04 303.917 69.04 303.92 69.04C303.924 69.04 303.928 69.04 303.931 69.04C303.935 69.04 303.939 69.04 303.942 69.04C303.946 69.04 303.95 69.04 303.953 69.04C303.957 69.04 303.961 69.04 303.964 69.04C303.968 69.04 303.972 69.04 303.975 69.04C303.979 69.04 303.983 69.04 303.986 69.04C303.99 69.04 303.994 69.04 303.997 69.04C304.001 69.04 304.005 69.04 304.008 69.04C304.012 69.04 304.016 69.04 304.019 69.04C304.023 69.04 304.027 69.04 304.03 69.04C304.034 69.04 304.038 69.04 304.041 69.04C304.045 69.04 304.049 69.04 304.053 69.04C304.056 69.04 304.06 69.04 304.064 69.04C304.067 69.04 304.071 69.04 304.075 69.04C304.078 69.04 304.082 69.04 304.086 69.04C304.089 69.04 304.093 69.04 304.097 69.04C304.1 69.04 304.104 69.04 304.108 69.04C304.111 69.04 304.115 69.04 304.119 69.04C304.122 69.04 304.126 69.04 304.13 69.04C304.133 69.04 304.137 69.04 304.141 69.04C304.145 69.04 304.148 69.04 304.152 69.04C304.156 69.04 304.159 69.04 304.163 69.04C304.167 69.04 304.17 69.04 304.174 69.04C304.178 69.04 304.181 69.04 304.185 69.04C304.189 69.04 304.193 69.04 304.196 69.04C304.2 69.04 304.204 69.04 304.207 69.04C304.211 69.04 304.215 69.04 304.218 69.04C304.222 69.04 304.226 69.04 304.23 69.04C304.233 69.04 304.237 69.04 304.241 69.04C304.244 69.04 304.248 69.04 304.252 69.04C304.255 69.04 304.259 69.04 304.263 69.04C304.267 69.04 304.27 69.04 304.274 69.04C304.278 69.04 304.281 69.04 304.285 69.04C304.289 69.04 304.293 69.04 304.296 69.04C304.3 69.04 304.304 69.04 304.307 69.04C304.311 69.04 304.315 69.04 304.318 69.04C304.322 69.04 304.326 69.04 304.33 69.04C304.333 69.04 304.337 69.04 304.341 69.04C304.344 69.04 304.348 69.04 304.352 69.04C304.356 69.04 304.359 69.04 304.363 69.04C304.367 69.04 304.37 69.04 304.374 69.04C304.378 69.04 304.382 69.04 304.385 69.04C304.389 69.04 304.393 69.04 304.396 69.04C304.4 69.04 304.404 69.04 304.408 69.04C304.411 69.04 304.415 69.04 304.419 69.04C304.423 69.04 304.426 69.04 304.43 69.04C304.434 69.04 304.437 69.04 304.441 69.04C304.445 69.04 304.449 69.04 304.452 69.04C304.456 69.04 304.46 69.04 304.464 69.04C304.467 69.04 304.471 69.04 304.475 69.04C304.478 69.04 304.482 69.04 304.486 69.04C304.49 69.04 304.493 69.04 304.497 69.04C304.501 69.04 304.505 69.04 304.508 69.04C304.512 69.04 304.516 69.04 304.519 69.04C304.523 69.04 304.527 69.04 304.531 69.04C304.534 69.04 304.538 69.04 304.542 69.04C304.546 69.04 304.549 69.04 304.553 69.04C304.557 69.04 304.561 69.04 304.564 69.04C304.568 69.04 304.572 69.04 304.576 69.04C304.579 69.04 304.583 69.04 304.587 69.04C304.59 69.04 304.594 69.04 304.598 69.04C304.602 69.04 304.606 69.04 304.609 69.04C304.613 69.04 304.617 69.04 304.621 69.04C304.624 69.04 304.628 69.04 304.632 69.04C304.635 69.04 304.639 69.04 304.643 69.04V68.04ZM299.423 68.04L299.5 67.0429C297.921 66.9215 296.515 66.86 295.283 66.86V67.86V68.86C296.451 68.86 297.805 68.9185 299.346 69.0371L299.423 68.04ZM295.283 67.86H294.283V135H295.283H296.283V67.86H295.283ZM295.283 135L294.289 135.11C294.559 137.54 295.664 139.443 297.622 140.701L298.163 139.86L298.704 139.019C297.302 138.117 296.487 136.78 296.277 134.89L295.283 135ZM298.163 139.86L297.648 140.717C299.537 141.851 301.553 142.67 303.694 143.173L303.923 142.2L304.152 141.227C302.213 140.77 300.389 140.029 298.677 139.003L298.163 139.86ZM303.923 142.2L303.717 143.179C306.081 143.676 308.792 143.92 311.843 143.92V142.92V141.92C308.894 141.92 306.325 141.684 304.129 141.221L303.923 142.2ZM311.843 142.92H310.843V146.52H311.843H312.843V142.92H311.843ZM311.843 146.52V145.52H270.983V146.52V147.52H311.843V146.52ZM270.983 146.52H271.983V142.92H270.983H269.983V146.52H270.983ZM270.983 142.92V143.92C274.152 143.92 276.98 143.676 279.459 143.181L279.263 142.2L279.067 141.219C276.746 141.684 274.054 141.92 270.983 141.92V142.92ZM279.263 142.2L279.545 143.159C281.671 142.534 283.619 141.656 285.384 140.521L284.843 139.68L284.302 138.839C282.707 139.864 280.935 140.666 278.981 141.241L279.263 142.2ZM284.843 139.68L285.398 140.512C287.493 139.115 288.543 137.053 288.543 134.46H287.543H286.543C286.543 136.427 285.793 137.845 284.288 138.848L284.843 139.68ZM287.543 134.46H288.543V14.22H287.543H286.543V134.46H287.543ZM287.543 14.22H288.543C288.543 11.5286 287.507 9.43205 285.357 8.1425L284.843 9L284.329 9.8575C285.779 10.7279 286.543 12.1114 286.543 14.22H287.543ZM284.843 9L285.384 8.15881C283.619 7.02408 281.671 6.14577 279.545 5.52063L279.263 6.48L278.981 7.43936C280.935 8.01422 282.707 8.81592 284.302 9.84117L284.843 9ZM279.263 6.48L279.459 5.49942C276.98 5.00356 274.152 4.75999 270.983 4.75999V5.75999V6.75999C274.054 6.75999 276.746 6.99644 279.067 7.46059L279.263 6.48ZM270.983 5.75999H271.983V2.16H270.983H269.983V5.75999H270.983ZM270.983 2.16V3.16H303.923V2.16V1.16H270.983V2.16ZM303.923 2.16V3.16C310.322 3.16 315.718 3.9902 320.137 5.61835L320.483 4.68001L320.829 3.74165C316.128 2.0098 310.484 1.16 303.923 1.16V2.16ZM320.483 4.68001L320.137 5.61835C324.579 7.25473 328.163 9.51886 330.922 12.3925L331.643 11.7L332.364 11.0075C329.363 7.88113 325.507 5.46527 320.829 3.74165L320.483 4.68001ZM331.643 11.7L330.936 12.4071C333.703 15.1745 335.722 18.4597 336.994 22.2762L337.943 21.96L338.892 21.6438C337.524 17.5403 335.343 13.9855 332.35 10.9929L331.643 11.7ZM337.943 21.96L336.997 22.2851C338.279 26.014 338.923 29.9835 338.923 34.2H339.923H340.923C340.923 29.7765 340.247 25.586 338.889 21.6349L337.943 21.96ZM339.923 34.2H338.923C338.923 36.5053 338.576 39.2493 337.867 42.4431L338.843 42.66L339.819 42.8769C340.549 39.5907 340.923 36.6947 340.923 34.2H339.923ZM338.843 42.66L337.869 42.4351C337.181 45.4151 335.798 48.4847 333.691 51.6453L334.523 52.2L335.355 52.7547C337.568 49.4353 339.065 46.1449 339.817 42.8849L338.843 42.66ZM334.523 52.2L333.686 51.6527C331.737 54.6331 328.846 57.4229 324.968 60.0079L325.523 60.84L326.078 61.6721C330.12 58.9771 333.229 56.0069 335.36 52.7473L334.523 52.2ZM325.523 60.84L324.956 60.016C321.267 62.5528 316.311 64.4338 310.038 65.6173L310.223 66.6L310.408 67.5827C316.855 66.3662 322.1 64.4072 326.09 61.664L325.523 60.84ZM310.223 66.6L310.006 67.5762C314.197 68.5074 317.507 70.122 319.99 72.3799L320.663 71.64L321.336 70.9001C318.539 68.358 314.889 66.6126 310.44 65.6238L310.223 66.6ZM320.663 71.64L320.026 72.411C322.682 74.6046 324.753 77.1952 326.249 80.1872L327.143 79.74L328.037 79.2928C326.413 76.0448 324.164 73.2354 321.3 70.869L320.663 71.64ZM327.143 79.74L326.262 80.2141C327.899 83.253 329.191 86.6539 330.133 90.4225L331.103 90.18L332.073 89.9375C331.095 86.0261 329.747 82.467 328.023 79.2659L327.143 79.74ZM331.103 90.18L330.135 90.4299C331.091 94.1376 331.989 97.9055 332.826 101.734L333.803 101.52L334.78 101.306C333.937 97.4545 333.034 93.6624 332.071 89.9301L331.103 90.18ZM333.803 101.52L332.824 101.725C333.901 106.872 334.859 111.958 335.697 116.984L336.683 116.82L337.669 116.656C336.827 111.602 335.864 106.488 334.782 101.315L333.803 101.52ZM336.683 116.82L335.697 116.984C336.541 122.05 337.507 126.584 338.598 130.583L339.563 130.32L340.528 130.057C339.458 126.136 338.505 121.67 337.669 116.656L336.683 116.82ZM339.563 130.32L338.598 130.583C339.695 134.603 341.047 137.94 342.673 140.566L343.523 140.04L344.373 139.514C342.879 137.1 341.591 133.957 340.528 130.057L339.563 130.32ZM343.523 140.04L342.684 140.585C344.41 143.24 346.812 144.64 349.823 144.64V143.64V142.64C347.554 142.64 345.755 141.64 344.361 139.495L343.523 140.04Z" fill="#F5F4EE" mask="url(#path-1-inside-1_1_24)"/>
</svg>
